<?xml version="1.0" encoding="UTF-8" standalone="no"?>
<!-- Created with Inkscape (http://www.inkscape.org/) -->

<svg
        xmlns:dc="http://purl.org/dc/elements/1.1/"
        xmlns:cc="http://creativecommons.org/ns#"
        xmlns:rdf="http://www.w3.org/1999/02/22-rdf-syntax-ns#"
        xmlns:sodipodi="http://sodipodi.sourceforge.net/DTD/sodipodi-0.dtd"
        xmlns:inkscape="http://www.inkscape.org/namespaces/inkscape"
        xmlns="http://www.w3.org/2000/svg"
        version="1.1"
        id="svg2"
        xml:space="preserve"
        width="377.82858"
        height="104.26556"
        viewBox="0 0 377.82858 104.26557"
        sodipodi:docname="IMG-Regression.svg"
        inkscape:version="0.92.3 (2405546, 2018-03-11)"
        inkscape:export-filename="C:\Users\stone\Documents\Projekte\Jupyter Notebooks für AIS\Notebooks\House-Prices\Images\IMG-Regression.png"
        inkscape:export-xdpi="150"
        inkscape:export-ydpi="150"><metadata
     id="metadata8"><rdf:RDF><cc:Work
         rdf:about=""><dc:format>image/svg+xml</dc:format><dc:type
        rdf:resource="http://purl.org/dc/dcmitype/StillImage"/><dc:title></dc:title></cc:Work></rdf:RDF></metadata>
    <defs
            id="defs6"/>
    <sodipodi:namedview
            pagecolor="#ffffff"
            bordercolor="#666666"
            borderopacity="1"
            objecttolerance="10"
            gridtolerance="10"
            guidetolerance="10"
            inkscape:pageopacity="0"
            inkscape:pageshadow="2"
            inkscape:window-width="2560"
            inkscape:window-height="1361"
            id="namedview4"
            showgrid="false"
            inkscape:zoom="2.7281769"
            inkscape:cx="102.76645"
            inkscape:cy="-3.52347"
            inkscape:window-x="1991"
            inkscape:window-y="-9"
            inkscape:window-maximized="1"
            inkscape:current-layer="g10"
            fit-margin-top="0"
            fit-margin-left="0"
            fit-margin-right="0"
            fit-margin-bottom="0"/>
    <g
            id="g10"
            inkscape:groupmode="layer"
            inkscape:label="ink_ext_XXXXXX"
            transform="matrix(1.3333333,0,0,-1.3333333,-3.8877984,130.11716)"><g
       id="g1193"
       inkscape:export-xdpi="300.0726"
       inkscape:export-ydpi="300.0726"><path
         d="m 283.287,65.8141 c 0,1.5945 -1.293,2.8871 -2.887,2.8871 v 0.0054 h -36.8101 l 0.012,0.0122 c -6.359,6.7042 -15.311,10.8789 -25.229,10.8789 -9.918,0 -18.871,-4.1747 -25.23,-10.8789 l 0.012,-0.0122 H 8.8056889 v -7e-4 c -1.59453,0 -2.88711,-1.2926 -2.88711,-2.8871 h -0.00273 v -40.543 c 0,-1.5945 1.29258,-2.8871 2.88711,-2.8871 v 0.0176 H 216.5019 224.1499 280.4 v -0.0176 c 1.594,0 2.887,1.2926 2.887,2.8871 v 40.5383"
         style="fill:none;stroke:#ed1c24;stroke-width:6;stroke-linecap:round;stroke-linejoin:round;stroke-miterlimit:4;stroke-dasharray:none;stroke-opacity:1"
         id="path14"
         inkscape:connector-curvature="0"
         sodipodi:nodetypes="cccccsccccccsccccccsc" /><g
            id="g1186"><path
           inkscape:connector-curvature="0"
           id="path16"
           style="fill:#ed1c24;fill-opacity:1;fill-rule:nonzero;stroke:none;stroke-width:0.1"
           d="m 283.287,65.8141 c 0,1.5945 -1.293,2.8871 -2.887,2.8871 v 0.0054 h -37.00449 l 0.012,0.0122 c -6.359,6.7042 -15.311,10.8789 -25.229,10.8789 -9.918,0 -18.871,-4.1747 -25.23,-10.8789 l 0.012,-0.0122 H 8.8056888 v -7e-4 c -1.59453,0 -2.88711,-1.2926 -2.88711,-2.8871 h -0.0027 v -40.543 c 0,-1.5945 1.29258,-2.8871 2.88711,-2.8871 v 0.0176 h 207.5045512 7.648 56.44449 v -0.0176 c 1.594,0 2.887,1.2926 2.887,2.8871 v 40.5383"
           sodipodi:nodetypes="cccccsccccccsccccccsc" />
        <path
                inkscape:connector-curvature="0"
                id="path18"
                style="fill:none;stroke:#ed1c24;stroke-width:5.50509977;stroke-linecap:round;stroke-linejoin:round;stroke-miterlimit:4;stroke-dasharray:none;stroke-opacity:1"
                d="m 283.287,65.8141 c 0,1.5945 -1.293,2.8871 -2.887,2.8871 v 0.0054 h -36.42132 l 0.012,0.0122 c -6.359,6.7042 -15.311,10.8789 -25.229,10.8789 -9.918,0 -18.871,-4.1747 -25.23,-10.8789 l 0.012,-0.0122 H 8.805689 v -7e-4 c -1.59453,0 -2.88711,-1.2926 -2.88711,-2.8871 h -0.0027 v -40.543 c 0,-1.5945 1.29258,-2.8871 2.88711,-2.8871 v 0.0176 h 208.087721 7.648 55.86132 v -0.0176 c 1.594,0 2.887,1.2926 2.887,2.8871 v 40.5383"
                sodipodi:nodetypes="cccccsccccccsccccccsc"/>
        <path
                inkscape:connector-curvature="0"
                id="path20"
                style="fill:none;stroke:#ffffff;stroke-width:2.93600011;stroke-linecap:round;stroke-linejoin:round;stroke-miterlimit:4;stroke-dasharray:none;stroke-opacity:1"
                d="m 283.287,65.8141 c 0,1.5945 -1.293,2.8871 -2.887,2.8871 v 0.0054 h -36.8101 l 0.012,0.0122 c -6.359,6.7042 -15.311,10.8789 -25.229,10.8789 -9.918,0 -18.871,-4.1747 -25.23,-10.8789 l 0.012,-0.0122 H 9.0000788 v -7e-4 c -1.59453,0 -2.88711,-1.2926 -2.88711,-2.8871 h -0.00273 v -40.543 c 0,-1.5945 1.29258,-2.8871 2.88711,-2.8871 v 0.0176 H 216.5019 224.1499 280.4 v -0.0176 c 1.594,0 2.887,1.2926 2.887,2.8871 v 40.5383"
                sodipodi:nodetypes="cccccsccccccsccccccsc"/></g></g>
        <text
                xml:space="preserve"
                style="font-style:normal;font-variant:normal;font-weight:normal;font-stretch:normal;font-size:15.14352989px;line-height:100%;font-family:Kabel-Heavy;-inkscape-font-specification:Kabel-Heavy;letter-spacing:0px;word-spacing:0px;fill:#000000;fill-opacity:1;stroke:none;stroke-width:1.26196098px;stroke-linecap:butt;stroke-linejoin:miter;stroke-opacity:1"
                x="15.064024"
                y="-29.013783"
                id="text1103"
                transform="scale(1,-1)"
                inkscape:export-xdpi="300.0726"
                inkscape:export-ydpi="300.0726"><tspan
         sodipodi:role="line"
         id="tspan1101"
         x="15.064024"
         y="-29.013783"
         style="font-style:normal;font-variant:normal;font-weight:900;font-stretch:normal;font-size:47.11320877px;font-family:Kabel-Heavy;-inkscape-font-specification:'Kabel-Heavy Heavy';fill:#ffffff;fill-opacity:1;stroke-width:1.26196098px">REGRESSION</tspan></text>
        <g
                id="g1181"
                transform="translate(74.506465,0.52805046)"
                inkscape:export-xdpi="300.0726"
                inkscape:export-ydpi="300.0726"><path
         d="m 152.103,76.2797 -3.116,6.6211 -3.31,3.1156 -9.348,-0.7789 -7.594,-5.0633 -2.337,-7.2051 2.726,-5.0632 3.895,-1.1684 19.084,9.5422"
         style="fill:#ffffff;fill-opacity:1;fill-rule:nonzero;stroke:none;stroke-width:0.1"
         id="path38"
         inkscape:connector-curvature="0" />
            <path
                    d="m 195.6,64.6805 c -0.139,0.1277 -0.279,0.255 -0.418,0.382 l -5.379,5.0316 -2.005,1.87 c -0.251,0.3468 -0.771,0.4629 -0.656,1.0601 0.078,0.1543 -0.135,0.2317 0,0.3473 0,0.5398 0.058,1.1375 -0.231,1.5039 -0.366,0.2891 -0.173,0.9828 -0.328,1.4457 -0.077,0.4434 -0.115,0.8867 -0.347,1.2144 -0.27,0.5594 -0.983,0.7711 -1.504,1.1375 -0.019,0.4051 -0.192,0.6942 -0.385,0.945 -0.771,0.7515 -2.256,0.5972 -3.258,0.2886 -0.444,-0.0961 -0.752,-0.5586 -1.215,-0.4816 -3.99,3.6242 -7.808,7.3453 -11.702,11.0273 -0.174,0.1352 -0.231,0.3665 -0.289,0.5786 -0.212,0.7324 0.231,1.2914 0.713,1.6578 0.868,0.559 1.658,-0.2504 2.545,-0.2313 0.771,-0.0386 1.427,0.3856 1.716,0.9063 0.019,0.1156 0.038,0.1734 0.096,0.2312 -0.058,0.2508 0.077,0.366 0.058,0.5977 h 0.019 c 0,0.3855 -0.135,0.6746 -0.212,1.0215 -0.52,0.9449 -1.716,1.523 -2.988,1.6004 -0.925,0.1543 -1.793,-0.1157 -2.603,-0.3856 -1.966,-0.8098 -3.104,-2.3328 -3.373,-4.4148 h -0.039 c -0.038,-1.6965 0.386,-3.0461 1.292,-4.0485 3.72,-3.5859 7.518,-7.1527 11.239,-10.7578 0.232,-0.4625 -0.25,-0.8098 -0.25,-1.3301 h -0.019 c -0.078,-0.5785 0.115,-0.964 0.192,-1.4652 0.077,-0.3277 0.367,-0.5977 0.27,-0.9832 0,-0.4434 -0.694,-0.1352 -0.713,-0.559 -0.637,-0.4629 -1.118,-1.0605 -1.755,-1.5426 -0.366,-0.2312 -0.539,0.2121 -0.828,0.2508 -2.275,-2.082 -4.916,-3.9137 -7.828,-5.5523 -0.193,-0.0578 -0.405,-0.2313 -0.578,-0.0383 -0.212,0.4238 -0.135,1.0601 -0.251,1.5422 -0.134,0.4625 -0.115,1.0219 -0.54,1.2722 -0.115,-0.0769 -0.135,-0.2312 -0.154,-0.4046 0,-0.1161 -0.077,-0.2122 -0.115,-0.3086 -0.328,-0.9446 -0.848,-1.7543 -1.832,-2.2364 -0.154,-0.0386 -0.308,0.0578 -0.366,0.193 -0.174,1.7352 -0.424,3.393 -1.003,4.8195 -0.983,2.5832 -2.41,4.8778 -4.395,6.7477 -0.367,0.5012 -1.003,0.8098 -1.465,1.2527 -0.155,0.2317 -0.482,0.3086 -0.521,0.6559 0.328,0.3273 0.752,0.5976 1.137,0.8676 1.061,1.0214 2.198,1.9664 2.468,3.5277 -0.039,0.1352 -0.077,0.2699 -0.135,0.4242 -0.173,0.2508 -0.559,0.4434 -0.964,0.3473 -0.347,-0.0774 -0.501,-0.3086 -0.674,-0.5399 -0.656,-1.3882 -1.813,-2.4293 -3.124,-3.3546 -0.154,-0.0387 -0.347,-0.1157 -0.482,-0.0192 -0.597,0.4434 -1.06,1.0024 -1.696,1.4074 -0.174,0.2891 -0.482,0.4625 -0.714,0.7325 -0.79,1.0218 -1.715,1.9277 -2.429,3.0074 l -0.096,0.2121 c -1.253,1.4652 -2.198,3.2004 -3.065,4.9355 -0.289,0.6168 -0.617,1.195 -1.388,1.4457 -2.179,0.559 -4.377,-0.0964 -6.362,-0.5781 -4.3,-1.5426 -7.962,-4.0101 -10.662,-6.9019 -0.944,-0.9832 -1.754,-2.0629 -2.467,-3.2004 -0.386,-0.3856 -0.501,-0.9254 -0.829,-1.3496 -0.174,-0.6364 -0.54,-1.118 -0.694,-1.7735 -0.289,-0.5976 -0.328,-1.8894 0.019,-2.4676 2.217,-1.8316 4.164,-3.8753 5.687,-6.1886 0.116,-0.1157 0.155,-0.366 0.405,-0.27 0.309,0.2122 0.54,0.5208 0.752,0.829 0.906,2.1015 2.217,3.9332 3.779,5.5718 3.142,3.3352 7.711,6.6703 13.225,7.3836 0.54,-0.0191 1.118,0.1539 1.6,-0.0578 0.116,-0.1156 0.251,-0.2508 0.154,-0.4242 -1.099,-0.1734 -2.217,-0.3082 -3.238,-0.6746 v -0.0774 c 0.944,-0.9445 1.869,-1.889 2.872,-2.7757 l 0.251,-0.1161 c 0.964,0.1161 1.87,0.3856 2.737,0.7329 h 0.328 c 0.154,-0.1352 0.347,-0.193 0.385,-0.3856 -0.057,-0.0773 -0.077,-0.1734 -0.154,-0.2312 -1.195,-0.675 -2.544,-1.0606 -3.913,-1.3305 -3.085,-0.5785 -6.035,-1.5422 -8.907,-2.5641 -3.894,-1.5039 -6.998,-3.7207 -9.292,-6.4777 -0.945,-1.1375 -1.504,-2.5063 -1.87,-4.0676 h -0.02 c -0.019,-0.1488 -0.035,-0.2953 -0.046,-0.4398 h 52.098 c 0.152,0.2105 0.417,0.3347 0.56,0.5554 0.482,0.4625 1.06,0.9254 1.388,1.4266 -0.096,0.3086 0.193,0.4047 0.289,0.6168 0.637,0.5977 1.215,1.2918 2.256,1.5617 0.501,0.1543 1.041,1.041 1.581,0.3469 1.582,-1.5469 3.26,-3.0133 4.907,-4.5074 h 5.748"
                    style="fill:#4dc6f4;fill-opacity:1;fill-rule:nonzero;stroke:none;stroke-width:0.1"
                    id="path40"
                    inkscape:connector-curvature="0"/>
            <path
                    d="m 114.4,64.6805 c -0.193,0.1191 -0.384,0.2402 -0.575,0.3625 l -0.289,0.0965 c -0.559,-0.6555 -1.022,0.3082 -1.523,0.4625 -0.347,0.1738 -0.636,0.6554 -1.137,0.4628 -0.27,0.0579 -0.27,0.3278 -0.444,0.4434 -0.385,0.6941 -1.002,1.1953 -1.407,1.8699 -0.058,0.6172 -0.251,1.1953 -0.135,1.8699 h 0.019 c -0.038,0.2704 0.077,0.6364 -0.096,0.8102 -0.193,0.2117 -0.579,0.1734 -0.868,0.1348 -1.581,-0.2504 -2.294,-1.4457 -2.602,-2.7571 h -0.02 l -0.019,-0.3277 h -0.019 l -0.019,-0.559 h -0.039 c 0.058,-0.1351 -0.058,-0.1734 -0.135,-0.2312 -1.774,-0.7133 -3.605,-1.5039 -5.2244,-2.4485 -0.0957,-0.0625 -0.1918,-0.1257 -0.2887,-0.189 H 114.4"
                    style="fill:#4dc6f4;fill-opacity:1;fill-rule:nonzero;stroke:none;stroke-width:0.1"
                    id="path42"
                    inkscape:connector-curvature="0"/>
            <path
                    d="m 189.852,64.6805 c 1.021,-0.9266 2.03,-1.8637 2.997,-2.8375 2.063,-1.7739 3.971,-3.6246 5.938,-5.4754 0.347,-0.2121 0.54,-0.7711 1.137,-0.559 1.099,0.4434 1.87,1.1566 2.121,2.2363 h 0.019 c 0.116,0.5977 -0.328,0.7711 -0.578,1.1184 -1.981,1.8187 -3.912,3.7051 -5.886,5.5172 h -5.748"
                    style="fill:#4dc6f4;fill-opacity:1;fill-rule:nonzero;stroke:none;stroke-width:0.1"
                    id="path44"
                    inkscape:connector-curvature="0"/>
            <path
                    d="m 99.5789,64.6805 c -2.2223,-1.4578 -4.6707,-3.1239 -5.225,-5.7102 h -0.0195 l -0.0192,-0.3855 h -0.0386 c 0.0195,-0.3856 0.1738,-0.7715 0.0578,-1.1567 -0.0192,-0.0386 0.0195,-0.1156 -0.0578,-0.1156 0.0773,-0.1738 -0.1157,-0.2508 -0.0192,-0.4051 -0.0191,-0.8097 1.1375,-0.7519 1.2918,-1.4457 0.4242,-0.4051 1.0797,-0.0773 1.5422,0.077 2.834,1.6578 5.9766,2.8148 9.3696,3.2582 0.636,0.0578 1.407,0.1347 2.024,-0.0582 0.463,-0.4817 1.234,-0.7324 1.658,-1.2528 -0.019,-0.4433 -0.135,-0.8097 -0.25,-1.1761 0,-0.1157 -0.078,-0.2121 -0.097,-0.3278 -0.039,-0.1543 0.019,-0.2699 0.135,-0.3468 4.376,-2.6993 9.485,-4.2028 14.729,-5.1477 3.644,-0.6555 7.461,-0.848 11.297,-1.041 l 0.193,-0.0961 -0.058,-0.0965 c -0.54,-0.1738 -1.137,-0.2121 -1.658,-0.4051 -0.13,-3.1664 -0.876,-9.523 -1.295,-10.9738 2.28,-3.2238 5.788,-5.3289 10.037,-5.3289 2.987,0 5.73,1.0394 7.888,2.7766 l -0.012,0.0121 c 2.411,3.7207 7.23,12.6371 8.021,17.7941 0.038,0.1926 0.077,0.4047 0.27,0.4625 l 3.412,0.9641 c 6.284,1.9086 12.068,5.1859 16.271,9.1574 0.019,0.2699 -0.173,0.366 -0.27,0.5781 -0.006,0.1641 0.041,0.2871 0.115,0.3895 h -52.098 c -0.196,-2.4438 0.72,-4.3043 2.668,-5.3055 0.694,-0.3855 1.504,-0.4625 2.294,-0.6363 0.135,-0.1926 0.328,-0.3469 0.309,-0.636 -0.097,-0.0386 -0.212,-0.0964 -0.328,-0.0386 -6.17,1.2265 -12.161,3.4207 -17.316,6.6164 H 99.5789"
                    style="fill:#4dc6f4;fill-opacity:1;fill-rule:nonzero;stroke:none;stroke-width:0.1"
                    id="path46"
                    inkscape:connector-curvature="0"/>
            <path
                    d="m 171.777,94.6359 c 0.096,-0.2121 0.096,-0.4433 0.096,-0.7132 -0.173,-0.3086 -0.635,-0.4051 -1.021,-0.3469 -0.887,0.6359 -2.275,0.6551 -3.2,0.0574 -0.232,-0.2891 -0.656,-0.4816 -0.733,-0.8867 -0.058,-0.0961 -0.154,-0.1543 -0.135,-0.3277 -0.039,-0.0965 -0.116,-0.1735 -0.116,-0.2891 -0.115,-0.4629 -0.135,-1.3496 0.193,-1.7352 0.116,-0.3277 0.405,-0.5011 0.54,-0.8097 0.694,-0.8481 1.542,-1.5422 2.371,-2.2942 l 1.658,-1.5617 c 0.405,-0.4625 0.906,-0.9254 1.388,-1.3492 1.909,-1.9086 3.952,-3.7016 5.861,-5.6293 0.116,-0.3856 -0.54,-0.3473 -0.79,-0.5399 -0.155,-0.0964 -0.328,-0.1738 -0.501,-0.1351 -0.483,0.3086 -0.849,0.7328 -1.254,1.0988 -3.277,3.2196 -6.709,6.2852 -10.005,9.466 -0.714,0.6364 -1.022,1.5422 -1.157,2.5832 l -0.02,0.752 h 0.02 l 0.019,0.3086 h 0.019 c 0.367,1.5617 1.254,2.8531 3.008,3.3156 1.369,0.2508 2.93,-0.0383 3.759,-0.9637"
                    style="fill:#ffffff;fill-opacity:1;fill-rule:nonzero;stroke:none;stroke-width:0.1"
                    id="path48"
                    inkscape:connector-curvature="0"/>
            <path
                    d="m 171.777,94.6359 c 0.096,-0.2121 0.096,-0.4433 0.096,-0.7132 -0.173,-0.3086 -0.635,-0.4051 -1.021,-0.3469 -0.887,0.6359 -2.275,0.6551 -3.2,0.0574 -0.232,-0.2891 -0.656,-0.4816 -0.733,-0.8867 -0.058,-0.0961 -0.154,-0.1543 -0.135,-0.3277 -0.039,-0.0965 -0.116,-0.1735 -0.116,-0.2891 -0.115,-0.4629 -0.135,-1.3496 0.193,-1.7352 0.116,-0.3277 0.405,-0.5011 0.54,-0.8097 0.694,-0.8481 1.542,-1.5422 2.371,-2.2942 l 1.658,-1.5617 c 0.405,-0.4625 0.906,-0.9254 1.388,-1.3492 1.909,-1.9086 3.952,-3.7016 5.861,-5.6293 0.116,-0.3856 -0.54,-0.3473 -0.79,-0.5399 -0.155,-0.0964 -0.328,-0.1738 -0.501,-0.1351 -0.483,0.3086 -0.849,0.7328 -1.254,1.0988 -3.277,3.2196 -6.709,6.2852 -10.005,9.466 -0.714,0.6364 -1.022,1.5422 -1.157,2.5832 l -0.02,0.752 h 0.02 l 0.019,0.3086 h 0.019 c 0.367,1.5617 1.254,2.8531 3.008,3.3156 1.369,0.2508 2.93,-0.0383 3.759,-0.9637 z"
                    style="fill:none;stroke:#ffffff;stroke-width:0.5;stroke-linecap:square;stroke-linejoin:miter;stroke-miterlimit:2;stroke-dasharray:none;stroke-opacity:1"
                    id="path50"
                    inkscape:connector-curvature="0"/>
            <path
                    d="m 138.791,90.684 c 1.022,-2.4488 2.526,-4.5692 4.107,-6.632 0.077,-0.0579 0.019,-0.2122 0.038,-0.3282 -1.06,-0.4047 -2.178,-0.7707 -3.219,-1.2527 -1.678,-0.7906 -3.085,-1.7352 -4.492,-2.7184 -0.559,0.0192 -0.636,0.5786 -0.964,0.8676 -1.465,1.793 -3.162,3.4508 -4.82,5.1086 -0.019,0.1352 -0.058,0.193 -0.058,0.3473 1.003,1.0988 2.449,1.8699 3.798,2.7183 1.562,0.8868 3.258,1.6774 5.051,2.159 0.289,0.0774 0.463,-0.0769 0.559,-0.2695"
                    style="fill:#000000;fill-opacity:1;fill-rule:nonzero;stroke:none;stroke-width:0.1"
                    id="path52"
                    inkscape:connector-curvature="0"/>
            <path
                    d="m 138.791,90.684 c 1.022,-2.4488 2.526,-4.5692 4.107,-6.632 0.077,-0.0579 0.019,-0.2122 0.038,-0.3282 -1.06,-0.4047 -2.178,-0.7707 -3.219,-1.2527 -1.678,-0.7906 -3.085,-1.7352 -4.492,-2.7184 -0.559,0.0192 -0.636,0.5786 -0.964,0.8676 -1.465,1.793 -3.162,3.4508 -4.82,5.1086 -0.019,0.1352 -0.058,0.193 -0.058,0.3473 1.003,1.0988 2.449,1.8699 3.798,2.7183 1.562,0.8868 3.258,1.6774 5.051,2.159 0.289,0.0774 0.463,-0.0769 0.559,-0.2695 z"
                    style="fill:none;stroke:#000000;stroke-width:0.75;stroke-linecap:square;stroke-linejoin:miter;stroke-miterlimit:2;stroke-dasharray:none;stroke-opacity:1"
                    id="path54"
                    inkscape:connector-curvature="0"/>
            <path
                    d="m 183.846,78.6539 c 0.212,-0.2508 0.173,-0.7137 0.308,-1.0027 0.328,-0.1735 0.81,-0.1157 1.099,-0.3856 0.405,-0.3277 0.443,-0.8676 0.54,-1.4074 -0.135,-0.1152 0.077,-0.1734 0,-0.3273 v -0.3473 h -0.02 c -0.057,-0.0961 0.02,-0.2504 -0.077,-0.3082 0.27,-0.4051 0.444,-0.8484 0.367,-1.4848 h -0.02 c -0.115,-1.234 -0.963,-1.9086 -2.043,-2.448 -0.251,0 -0.521,-0.193 -0.713,0 0.058,0.2504 0.25,0.4238 0.366,0.6168 0.366,0.5394 0.617,1.2144 0.771,1.9469 -0.019,0.0773 -0.019,0.1542 -0.115,0.1929 -0.54,-0.3277 -0.714,-0.9445 -1.138,-1.3687 -0.405,-0.4047 -0.752,-0.8676 -1.388,-1.0989 -0.289,-0.0582 -0.559,0.0579 -0.694,0.2313 -0.116,0.1734 -0.096,0.3855 -0.096,0.6168 0.443,0.5012 1.021,0.9445 1.311,1.5808 0.192,0.193 0.308,0.4434 0.366,0.752 0.231,0.2121 0.269,0.5398 0.308,0.8867 -0.019,0.0578 -0.096,0.1543 -0.173,0.0965 -0.637,-0.6746 -1.157,-1.3883 -2.005,-1.8699 -0.174,-0.0387 -0.386,-0.0195 -0.482,0.1156 -0.077,0.2121 -0.213,0.5203 -0.135,0.752 v 0.2121 c 0.038,0.0961 0.115,0.1925 0.115,0.3082 0.077,0.3277 0.309,0.5398 0.425,0.8293 -0.078,0.1734 0.115,0.1347 0.154,0.2117 0.462,0.5398 1.06,0.9641 1.234,1.716 h 0.038 c 0.039,0.4047 -0.135,0.752 -0.308,1.0602 -0.039,0.3664 0.463,0.289 0.694,0.4242 0.559,0.1734 1.06,-0.1543 1.311,-0.5012"
                    style="fill:#ffffff;fill-opacity:1;fill-rule:nonzero;stroke:none;stroke-width:0.1"
                    id="path56"
                    inkscape:connector-curvature="0"/>
            <path
                    d="m 183.846,78.6539 c 0.212,-0.2508 0.173,-0.7137 0.308,-1.0027 0.328,-0.1735 0.81,-0.1157 1.099,-0.3856 0.405,-0.3277 0.443,-0.8676 0.54,-1.4074 -0.135,-0.1152 0.077,-0.1734 0,-0.3273 v -0.3473 h -0.02 c -0.057,-0.0961 0.02,-0.2504 -0.077,-0.3082 0.27,-0.4051 0.444,-0.8484 0.367,-1.4848 h -0.02 c -0.115,-1.234 -0.963,-1.9086 -2.043,-2.448 -0.251,0 -0.521,-0.193 -0.713,0 0.058,0.2504 0.25,0.4238 0.366,0.6168 0.366,0.5394 0.617,1.2144 0.771,1.9469 -0.019,0.0773 -0.019,0.1542 -0.115,0.1929 -0.54,-0.3277 -0.714,-0.9445 -1.138,-1.3687 -0.405,-0.4047 -0.752,-0.8676 -1.388,-1.0989 -0.289,-0.0582 -0.559,0.0579 -0.694,0.2313 -0.116,0.1734 -0.096,0.3855 -0.096,0.6168 0.443,0.5012 1.021,0.9445 1.311,1.5808 0.192,0.193 0.308,0.4434 0.366,0.752 0.231,0.2121 0.269,0.5398 0.308,0.8867 -0.019,0.0578 -0.096,0.1543 -0.173,0.0965 -0.637,-0.6746 -1.157,-1.3883 -2.005,-1.8699 -0.174,-0.0387 -0.386,-0.0195 -0.482,0.1156 -0.077,0.2121 -0.213,0.5203 -0.135,0.752 v 0.2121 c 0.038,0.0961 0.115,0.1925 0.115,0.3082 0.077,0.3277 0.309,0.5398 0.425,0.8293 -0.078,0.1734 0.115,0.1347 0.154,0.2117 0.462,0.5398 1.06,0.9641 1.234,1.716 h 0.038 c 0.039,0.4047 -0.135,0.752 -0.308,1.0602 -0.039,0.3664 0.463,0.289 0.694,0.4242 0.559,0.1734 1.06,-0.1543 1.311,-0.5012 z"
                    style="fill:none;stroke:#ffffff;stroke-width:0.5;stroke-linecap:square;stroke-linejoin:miter;stroke-miterlimit:2;stroke-dasharray:none;stroke-opacity:1"
                    id="path58"
                    inkscape:connector-curvature="0"/>
            <path
                    d="m 124.139,78.6348 c 1.909,-1.5618 3.471,-3.3547 4.916,-5.2442 0.039,-0.0965 0.058,-0.1734 0.039,-0.289 -0.039,-0.1157 -0.154,-0.2313 -0.173,-0.3664 -0.155,-0.1926 -0.251,-0.4434 -0.405,-0.6168 -0.251,-0.0965 -0.347,0.1543 -0.482,0.2504 -1.311,1.716 -2.873,3.2777 -4.492,4.7621 -0.174,0.0964 -0.077,0.3855 -0.097,0.5785 h 0.02 c 0.038,0.3469 0.192,0.5394 0.289,0.8289 0.058,0.0965 0.251,0.2121 0.385,0.0965"
                    style="fill:#000000;fill-opacity:1;fill-rule:nonzero;stroke:none;stroke-width:0.1"
                    id="path60"
                    inkscape:connector-curvature="0"/>
            <path
                    d="m 124.139,78.6348 c 1.909,-1.5618 3.471,-3.3547 4.916,-5.2442 0.039,-0.0965 0.058,-0.1734 0.039,-0.289 -0.039,-0.1157 -0.154,-0.2313 -0.173,-0.3664 -0.155,-0.1926 -0.251,-0.4434 -0.405,-0.6168 -0.251,-0.0965 -0.347,0.1543 -0.482,0.2504 -1.311,1.716 -2.873,3.2777 -4.492,4.7621 -0.174,0.0964 -0.077,0.3855 -0.097,0.5785 h 0.02 c 0.038,0.3469 0.192,0.5394 0.289,0.8289 0.058,0.0965 0.251,0.2121 0.385,0.0965 z"
                    style="fill:none;stroke:#000000;stroke-width:0.75;stroke-linecap:square;stroke-linejoin:miter;stroke-miterlimit:2;stroke-dasharray:none;stroke-opacity:1"
                    id="path62"
                    inkscape:connector-curvature="0"/>
            <path
                    d="m 153.482,78.2297 c 0.212,-0.1543 0.463,-0.2895 0.501,-0.5785 -0.424,-0.2891 -1.157,-0.4047 -1.003,-1.118 0.077,-0.1352 0.213,-0.2312 0.386,-0.2891 0.289,-0.0195 0.463,0.2313 0.713,0.3278 1.523,0.2504 2.217,-1.041 2.873,-1.8508 0.655,-1.0027 1.33,-1.9473 1.754,-3.1234 0.251,-0.4243 0.405,-0.9059 0.559,-1.4075 0.27,-0.4429 0.328,-1.0601 0.482,-1.5804 0.077,-0.5207 0.193,-1.0219 0.251,-1.5809 -0.077,-0.5594 0.212,-0.8871 0.116,-1.4848 -0.135,-0.3273 -0.579,-0.1347 -0.887,-0.1543 -1.273,0.2704 -2.487,0.6942 -3.914,0.5786 -0.366,0.2507 -0.327,0.7519 -0.578,1.0605 -0.347,0.5203 -0.733,1.0602 -1.465,1.3301 -0.425,0.0191 -0.849,-0.1156 -1.254,-0.2313 -0.019,-0.0578 -0.057,-0.1929 0.02,-0.2121 0.675,-0.5593 1.465,-1.041 1.407,-2.1207 -0.058,0 -0.058,-0.0578 -0.058,-0.0965 -0.038,-0.5589 -0.809,-0.6359 -1.176,-0.9636 -0.038,-0.2895 0.077,-0.4821 0.193,-0.6559 0.54,-0.559 1.292,-0.0383 1.851,0.1543 0.848,1.0219 2.757,0.7906 3.952,0.4051 1.774,-0.8289 3.972,-0.2121 5.263,0.9254 0.135,0.1156 0.174,-0.0774 0.193,-0.1543 v -0.2313 h -0.019 c 0.038,-0.3086 -0.174,-0.4051 -0.154,-0.675 -0.039,-0.1156 -0.116,-0.2121 -0.116,-0.3277 -0.81,-2.1012 -2.487,-3.8363 -5.167,-4.3184 -1.234,-0.1543 -2.467,0.0196 -3.489,0.5785 -0.212,0.0383 -0.193,-0.1351 -0.29,-0.2316 -0.751,-1.6387 -2.043,-2.9301 -3.836,-3.8363 -2.236,-1.041 -5.649,-0.8481 -7.365,0.7906 -0.038,0.1348 0.058,0.1734 0.097,0.2504 1.754,-0.2699 3.335,0.7133 4.01,1.9086 0.424,0.6172 0.694,1.3496 1.214,1.9086 0.772,0.7711 1.697,1.5808 2.95,1.9086 0.174,0.0965 0.25,0.2312 0.25,0.4629 -0.076,0.1925 -0.153,0.366 -0.385,0.4433 -1.87,0.0961 -3.084,-1.234 -4.01,-2.275 -0.231,-0.3277 -0.443,-0.6554 -0.636,-1.0218 v -0.0965 c -0.039,-0.1157 -0.154,-0.2118 -0.174,-0.3469 -0.077,-0.0387 -0.057,-0.1156 -0.096,-0.1926 -0.309,-0.7711 -1.08,-1.3109 -2.005,-1.5426 -1.465,-0.2699 -2.93,0.5594 -3.644,1.4848 -0.212,0.1926 -0.212,0.6168 -0.597,0.5973 -0.039,-0.7516 0.328,-1.2914 0.559,-1.9086 0.925,-2.352 3.624,-4.0676 6.709,-4.1641 1.638,-0.0383 3.123,0.3664 4.415,1.1184 1.021,0.4625 1.773,1.1371 2.429,1.889 0.482,0.3086 1.157,-0.2504 1.407,0.3664 0.251,0.2121 0.309,0.6168 0.694,0.752 0.752,-0.0195 1.561,-0.0195 2.294,0.0769 0.135,-0.0386 0.155,-0.1543 0.135,-0.3082 h -0.019 c -1.523,-3.3929 -5.456,-6.1886 -10.179,-5.9187 -4.203,0.1156 -7.827,2.4293 -10.218,4.8969 -0.212,0.2312 -0.212,0.6168 -0.328,0.9254 -0.327,0.3468 -0.443,-0.2122 -0.713,-0.2891 -0.906,-0.5977 -2.448,-0.5398 -3.355,0.1156 -0.771,0.636 -1.503,1.3688 -1.253,2.6219 0.058,-0.0191 0.039,0.0387 0.039,0.0769 0.173,0.6168 0.733,1.0219 1.446,1.2149 0.212,0.0383 0.501,0.0961 0.578,0.2891 0,0.3468 -0.308,0.5011 -0.598,0.6168 -0.481,0.2894 -1.253,-0.4243 -1.311,0.3468 -0.076,0.2121 -0.115,0.4629 -0.134,0.752 l -0.02,0.5012 h 0.02 l 0.019,0.3085 h 0.019 c 0.154,0.6168 0.309,1.2145 0.559,1.7352 0.463,0.8484 1.022,1.6387 1.639,2.3906 1.118,1.2145 2.468,2.2942 3.913,3.2965 1.254,0.9063 2.835,1.6387 4.319,2.275 -1.504,0.0387 -2.757,-0.6941 -4.048,-1.234 -3.798,-1.889 -6.883,-4.2605 -8.502,-7.6922 -0.598,-1.041 -0.791,-3.0843 -0.02,-4.1257 l 0.386,-0.559 c 0.077,-0.077 0.038,-0.2504 0.038,-0.3856 -0.366,-0.2312 -0.79,0.1157 -1.118,0.2895 -1.291,0.7902 -1.716,2.4289 -1.388,4.1062 0.636,2.3711 2.198,4.0871 4.029,5.6102 2.507,2.159 6.035,3.8941 9.543,4.916 2.892,1.0988 6.131,1.3301 9.004,2.5063 0.558,0.1347 1.002,0.6167 1.619,0.5785 l 0.675,-0.4051"
                    style="fill:#ffffff;fill-opacity:1;fill-rule:nonzero;stroke:none;stroke-width:0.1"
                    id="path64"
                    inkscape:connector-curvature="0"/>
            <path
                    d="m 153.482,78.2297 c 0.212,-0.1543 0.463,-0.2895 0.501,-0.5785 -0.424,-0.2891 -1.157,-0.4047 -1.003,-1.118 0.077,-0.1352 0.213,-0.2312 0.386,-0.2891 0.289,-0.0195 0.463,0.2313 0.713,0.3278 1.523,0.2504 2.217,-1.041 2.873,-1.8508 0.655,-1.0027 1.33,-1.9473 1.754,-3.1234 0.251,-0.4243 0.405,-0.9059 0.559,-1.4075 0.27,-0.4429 0.328,-1.0601 0.482,-1.5804 0.077,-0.5207 0.193,-1.0219 0.251,-1.5809 -0.077,-0.5594 0.212,-0.8871 0.116,-1.4848 -0.135,-0.3273 -0.579,-0.1347 -0.887,-0.1543 -1.273,0.2704 -2.487,0.6942 -3.914,0.5786 -0.366,0.2507 -0.327,0.7519 -0.578,1.0605 -0.347,0.5203 -0.733,1.0602 -1.465,1.3301 -0.425,0.0191 -0.849,-0.1156 -1.254,-0.2313 -0.019,-0.0578 -0.057,-0.1929 0.02,-0.2121 0.675,-0.5593 1.465,-1.041 1.407,-2.1207 -0.058,0 -0.058,-0.0578 -0.058,-0.0965 -0.038,-0.5589 -0.809,-0.6359 -1.176,-0.9636 -0.038,-0.2895 0.077,-0.4821 0.193,-0.6559 0.54,-0.559 1.292,-0.0383 1.851,0.1543 0.848,1.0219 2.757,0.7906 3.952,0.4051 1.774,-0.8289 3.972,-0.2121 5.263,0.9254 0.135,0.1156 0.174,-0.0774 0.193,-0.1543 v -0.2313 h -0.019 c 0.038,-0.3086 -0.174,-0.4051 -0.154,-0.675 -0.039,-0.1156 -0.116,-0.2121 -0.116,-0.3277 -0.81,-2.1012 -2.487,-3.8363 -5.167,-4.3184 -1.234,-0.1543 -2.467,0.0196 -3.489,0.5785 -0.212,0.0383 -0.193,-0.1351 -0.29,-0.2316 -0.751,-1.6387 -2.043,-2.9301 -3.836,-3.8363 -2.236,-1.041 -5.649,-0.8481 -7.365,0.7906 -0.038,0.1348 0.058,0.1734 0.097,0.2504 1.754,-0.2699 3.335,0.7133 4.01,1.9086 0.424,0.6172 0.694,1.3496 1.214,1.9086 0.772,0.7711 1.697,1.5808 2.95,1.9086 0.174,0.0965 0.25,0.2312 0.25,0.4629 -0.076,0.1925 -0.153,0.366 -0.385,0.4433 -1.87,0.0961 -3.084,-1.234 -4.01,-2.275 -0.231,-0.3277 -0.443,-0.6554 -0.636,-1.0218 v -0.0965 c -0.039,-0.1157 -0.154,-0.2118 -0.174,-0.3469 -0.077,-0.0387 -0.057,-0.1156 -0.096,-0.1926 -0.309,-0.7711 -1.08,-1.3109 -2.005,-1.5426 -1.465,-0.2699 -2.93,0.5594 -3.644,1.4848 -0.212,0.1926 -0.212,0.6168 -0.597,0.5973 -0.039,-0.7516 0.328,-1.2914 0.559,-1.9086 0.925,-2.352 3.624,-4.0676 6.709,-4.1641 1.638,-0.0383 3.123,0.3664 4.415,1.1184 1.021,0.4625 1.773,1.1371 2.429,1.889 0.482,0.3086 1.157,-0.2504 1.407,0.3664 0.251,0.2121 0.309,0.6168 0.694,0.752 0.752,-0.0195 1.561,-0.0195 2.294,0.0769 0.135,-0.0386 0.155,-0.1543 0.135,-0.3082 h -0.019 c -1.523,-3.3929 -5.456,-6.1886 -10.179,-5.9187 -4.203,0.1156 -7.827,2.4293 -10.218,4.8969 -0.212,0.2312 -0.212,0.6168 -0.328,0.9254 -0.327,0.3468 -0.443,-0.2122 -0.713,-0.2891 -0.906,-0.5977 -2.448,-0.5398 -3.355,0.1156 -0.771,0.636 -1.503,1.3688 -1.253,2.6219 0.058,-0.0191 0.039,0.0387 0.039,0.0769 0.173,0.6168 0.733,1.0219 1.446,1.2149 0.212,0.0383 0.501,0.0961 0.578,0.2891 0,0.3468 -0.308,0.5011 -0.598,0.6168 -0.481,0.2894 -1.253,-0.4243 -1.311,0.3468 -0.076,0.2121 -0.115,0.4629 -0.134,0.752 l -0.02,0.5012 h 0.02 l 0.019,0.3085 h 0.019 c 0.154,0.6168 0.309,1.2145 0.559,1.7352 0.463,0.8484 1.022,1.6387 1.639,2.3906 1.118,1.2145 2.468,2.2942 3.913,3.2965 1.254,0.9063 2.835,1.6387 4.319,2.275 -1.504,0.0387 -2.757,-0.6941 -4.048,-1.234 -3.798,-1.889 -6.883,-4.2605 -8.502,-7.6922 -0.598,-1.041 -0.791,-3.0843 -0.02,-4.1257 l 0.386,-0.559 c 0.077,-0.077 0.038,-0.2504 0.038,-0.3856 -0.366,-0.2312 -0.79,0.1157 -1.118,0.2895 -1.291,0.7902 -1.716,2.4289 -1.388,4.1062 0.636,2.3711 2.198,4.0871 4.029,5.6102 2.507,2.159 6.035,3.8941 9.543,4.916 2.892,1.0988 6.131,1.3301 9.004,2.5063 0.558,0.1347 1.002,0.6167 1.619,0.5785 z"
                    style="fill:none;stroke:#ffffff;stroke-width:0.5;stroke-linecap:square;stroke-linejoin:miter;stroke-miterlimit:2;stroke-dasharray:none;stroke-opacity:1"
                    id="path66"
                    inkscape:connector-curvature="0"/>
            <path
                    d="m 136.574,77.4199 c 0.231,-0.4238 0.482,-0.8289 0.656,-1.2918 l -0.058,-0.1347 c -2.429,-0.9637 -4.511,-2.3133 -6.381,-3.7207 h -0.039 c 0,0.2121 0.193,0.3277 0.27,0.5011 1.292,2.0242 2.988,3.7403 4.955,5.3016 0.327,-0.1156 0.405,-0.4434 0.597,-0.6555"
                    style="fill:#4dc6f4;fill-opacity:1;fill-rule:nonzero;stroke:none;stroke-width:0.1"
                    id="path68"
                    inkscape:connector-curvature="0"/>
            <path
                    d="m 136.574,77.4199 c 0.231,-0.4238 0.482,-0.8289 0.656,-1.2918 l -0.058,-0.1347 c -2.429,-0.9637 -4.511,-2.3133 -6.381,-3.7207 h -0.039 c 0,0.2121 0.193,0.3277 0.27,0.5011 1.292,2.0242 2.988,3.7403 4.955,5.3016 0.327,-0.1156 0.405,-0.4434 0.597,-0.6555 z"
                    style="fill:none;stroke:#ffffff;stroke-width:0.30000001;stroke-linecap:square;stroke-linejoin:miter;stroke-miterlimit:2;stroke-dasharray:none;stroke-opacity:1"
                    id="path70"
                    inkscape:connector-curvature="0"/>
            <path
                    d="m 181.012,77.8441 c 0.038,-0.2507 -0.097,-0.4046 -0.212,-0.5589 -0.347,-0.3664 -0.752,-0.675 -1.099,-1.0606 V 76.109 c -0.039,-0.1156 -0.058,-0.2508 -0.155,-0.3277 -0.52,-0.7133 -0.539,-2.1399 -0.076,-2.9301 0.192,-0.2508 0.231,-0.6172 0.462,-0.8485 0.077,-0.8484 0.598,-1.4461 1.484,-1.6773 0.27,-0.2508 0.54,-0.5012 0.81,-0.752 0,-0.1734 -0.154,-0.2121 -0.27,-0.3086 -0.617,-0.2117 -1.06,-0.6168 -1.426,-1.041 -0.155,-0.0769 -0.347,-0.2504 -0.521,-0.1156 -0.732,0.8484 -1.253,1.8316 -1.986,2.6801 -0.231,0.3851 -0.52,0.6746 -0.732,1.0601 v 0.0965 c 0.097,0.0961 0.116,0.2699 0.231,0.366 0.193,0.3282 0.328,0.6942 0.27,1.2149 -0.328,0.5203 -0.713,0.9445 -0.655,1.7543 l -0.019,0.4047 h 0.019 c 0.192,0.7906 0.733,1.2531 1.368,1.716 0.675,0.4816 1.581,0.4816 2.43,0.5203 l 0.077,-0.077"
                    style="fill:#ffffff;fill-opacity:1;fill-rule:nonzero;stroke:none;stroke-width:0.1"
                    id="path72"
                    inkscape:connector-curvature="0"/>
            <path
                    d="m 181.012,77.8441 c 0.038,-0.2507 -0.097,-0.4046 -0.212,-0.5589 -0.347,-0.3664 -0.752,-0.675 -1.099,-1.0606 V 76.109 c -0.039,-0.1156 -0.058,-0.2508 -0.155,-0.3277 -0.52,-0.7133 -0.539,-2.1399 -0.076,-2.9301 0.192,-0.2508 0.231,-0.6172 0.462,-0.8485 0.077,-0.8484 0.598,-1.4461 1.484,-1.6773 0.27,-0.2508 0.54,-0.5012 0.81,-0.752 0,-0.1734 -0.154,-0.2121 -0.27,-0.3086 -0.617,-0.2117 -1.06,-0.6168 -1.426,-1.041 -0.155,-0.0769 -0.347,-0.2504 -0.521,-0.1156 -0.732,0.8484 -1.253,1.8316 -1.986,2.6801 -0.231,0.3851 -0.52,0.6746 -0.732,1.0601 v 0.0965 c 0.097,0.0961 0.116,0.2699 0.231,0.366 0.193,0.3282 0.328,0.6942 0.27,1.2149 -0.328,0.5203 -0.713,0.9445 -0.655,1.7543 l -0.019,0.4047 h 0.019 c 0.192,0.7906 0.733,1.2531 1.368,1.716 0.675,0.4816 1.581,0.4816 2.43,0.5203 z"
                    style="fill:none;stroke:#ffffff;stroke-width:0.5;stroke-linecap:square;stroke-linejoin:miter;stroke-miterlimit:2;stroke-dasharray:none;stroke-opacity:1"
                    id="path74"
                    inkscape:connector-curvature="0"/>
            <path
                    d="m 144.459,73.5258 c 0.096,-0.0387 0,-0.193 0.096,-0.2317 -0.019,-0.1925 -0.134,-0.3082 -0.231,-0.4429 -0.482,0.1156 -1.233,0.2695 -1.6,-0.1352 -0.52,-0.4629 -0.906,-1.0219 -1.06,-1.7351 -0.058,0 -0.019,-0.077 -0.039,-0.1157 0.02,-0.289 -0.212,-0.4625 -0.096,-0.7328 0.019,-0.0578 -0.039,-0.173 0.058,-0.1926 -0.116,-0.0191 0.019,-0.2312 -0.155,-0.1543 -0.192,0.2122 -0.269,0.4821 -0.25,0.829 -0.058,0.1738 0.019,0.4437 -0.077,0.6171 0.096,0.1157 0.038,0.3278 0.058,0.4821 h 0.019 c 0.096,0.8289 0.539,1.3683 1.06,1.889 0.578,0.4434 1.812,0.5977 2.217,-0.0769"
                    style="fill:#4dc6f4;fill-opacity:1;fill-rule:nonzero;stroke:none;stroke-width:0.1"
                    id="path76"
                    inkscape:connector-curvature="0"/>
            <path
                    d="m 144.459,73.5258 c 0.096,-0.0387 0,-0.193 0.096,-0.2317 -0.019,-0.1925 -0.134,-0.3082 -0.231,-0.4429 -0.482,0.1156 -1.233,0.2695 -1.6,-0.1352 -0.52,-0.4629 -0.906,-1.0219 -1.06,-1.7351 -0.058,0 -0.019,-0.077 -0.039,-0.1157 0.02,-0.289 -0.212,-0.4625 -0.096,-0.7328 0.019,-0.0578 -0.039,-0.173 0.058,-0.1926 -0.116,-0.0191 0.019,-0.2312 -0.155,-0.1543 -0.192,0.2122 -0.269,0.4821 -0.25,0.829 -0.058,0.1738 0.019,0.4437 -0.077,0.6171 0.096,0.1157 0.038,0.3278 0.058,0.4821 h 0.019 c 0.096,0.8289 0.539,1.3683 1.06,1.889 0.578,0.4434 1.812,0.5977 2.217,-0.0769 z"
                    style="fill:none;stroke:#ffffff;stroke-width:0.2;stroke-linecap:square;stroke-linejoin:miter;stroke-miterlimit:2;stroke-dasharray:none;stroke-opacity:1"
                    id="path78"
                    inkscape:connector-curvature="0"/>
            <path
                    d="m 156.855,72.4848 c 0.155,-0.1352 0.077,-0.4243 0.097,-0.6555 -0.174,-0.2316 -0.366,-0.4434 -0.675,-0.5594 -0.289,-0.0578 -0.598,-0.0191 -0.79,0.1352 -0.174,0.2312 -0.386,0.4242 -0.367,0.7902 h 0.02 c 0.019,0.3277 0.212,0.5016 0.443,0.675 0.193,0.0965 0.463,0.1926 0.694,0.0965 0.251,-0.0965 0.443,-0.3086 0.578,-0.482"
                    style="fill:#4dc6f4;fill-opacity:1;fill-rule:nonzero;stroke:none;stroke-width:0.1"
                    id="path80"
                    inkscape:connector-curvature="0"/>
            <path
                    d="m 156.855,72.4848 c 0.155,-0.1352 0.077,-0.4243 0.097,-0.6555 -0.174,-0.2316 -0.366,-0.4434 -0.675,-0.5594 -0.289,-0.0578 -0.598,-0.0191 -0.79,0.1352 -0.174,0.2312 -0.386,0.4242 -0.367,0.7902 h 0.02 c 0.019,0.3277 0.212,0.5016 0.443,0.675 0.193,0.0965 0.463,0.1926 0.694,0.0965 0.251,-0.0965 0.443,-0.3086 0.578,-0.482 z"
                    style="fill:none;stroke:#ffffff;stroke-width:0.30000001;stroke-linecap:square;stroke-linejoin:miter;stroke-miterlimit:2;stroke-dasharray:none;stroke-opacity:1"
                    id="path82"
                    inkscape:connector-curvature="0"/>
            <path
                    d="m 186.834,71.193 c 3.084,-2.7571 6.034,-5.6293 9.1,-8.4055 1.445,-1.4652 3.065,-2.834 4.511,-4.2992 0.077,-0.2121 0.385,-0.2699 0.269,-0.6363 -0.173,-0.2891 -0.346,-0.6168 -0.732,-0.7516 -0.347,0 -0.54,0.2504 -0.733,0.4238 -1.291,1.1953 -2.486,2.3906 -3.759,3.6438 -1.195,1.0605 -2.333,2.1207 -3.47,3.2004 -2.102,1.9086 -4.165,3.8554 -6.208,5.8027 -0.308,0.3086 0.193,0.4434 0.27,0.675 0.251,0.1156 0.347,0.559 0.752,0.3469"
                    style="fill:#ffffff;fill-opacity:1;fill-rule:nonzero;stroke:none;stroke-width:0.1"
                    id="path84"
                    inkscape:connector-curvature="0"/>
            <path
                    d="m 186.834,71.193 c 3.084,-2.7571 6.034,-5.6293 9.1,-8.4055 1.445,-1.4652 3.065,-2.834 4.511,-4.2992 0.077,-0.2121 0.385,-0.2699 0.269,-0.6363 -0.173,-0.2891 -0.346,-0.6168 -0.732,-0.7516 -0.347,0 -0.54,0.2504 -0.733,0.4238 -1.291,1.1953 -2.486,2.3906 -3.759,3.6438 -1.195,1.0605 -2.333,2.1207 -3.47,3.2004 -2.102,1.9086 -4.165,3.8554 -6.208,5.8027 -0.308,0.3086 0.193,0.4434 0.27,0.675 0.251,0.1156 0.347,0.559 0.752,0.3469 z"
                    style="fill:none;stroke:#ffffff;stroke-width:0.5;stroke-linecap:square;stroke-linejoin:miter;stroke-miterlimit:2;stroke-dasharray:none;stroke-opacity:1"
                    id="path86"
                    inkscape:connector-curvature="0"/>
            <path
                    d="m 176.423,70.5184 c 0.579,-0.8098 1.176,-1.6004 1.755,-2.4102 0.212,-0.0769 0.212,-0.2695 0.27,-0.4434 0.173,-0.3855 0.559,-0.6168 0.54,-1.1375 -0.213,-0.289 -0.463,-0.5781 -0.81,-0.7902 -0.579,-0.0769 -0.637,0.5399 -0.926,0.7902 -0.79,1.2149 -1.677,2.3329 -2.525,3.4704 -0.077,0.0769 -0.019,0.2312 -0.039,0.3468 0.309,0.27 0.598,0.5785 0.983,0.8098 0.425,0 0.559,-0.3855 0.752,-0.6359"
                    style="fill:#ffffff;fill-opacity:1;fill-rule:nonzero;stroke:none;stroke-width:0.1"
                    id="path88"
                    inkscape:connector-curvature="0"/>
            <path
                    d="m 176.423,70.5184 c 0.579,-0.8098 1.176,-1.6004 1.755,-2.4102 0.212,-0.0769 0.212,-0.2695 0.27,-0.4434 0.173,-0.3855 0.559,-0.6168 0.54,-1.1375 -0.213,-0.289 -0.463,-0.5781 -0.81,-0.7902 -0.579,-0.0769 -0.637,0.5399 -0.926,0.7902 -0.79,1.2149 -1.677,2.3329 -2.525,3.4704 -0.077,0.0769 -0.019,0.2312 -0.039,0.3468 0.309,0.27 0.598,0.5785 0.983,0.8098 0.425,0 0.559,-0.3855 0.752,-0.6359 z"
                    style="fill:none;stroke:#ffffff;stroke-width:0.5;stroke-linecap:square;stroke-linejoin:miter;stroke-miterlimit:2;stroke-dasharray:none;stroke-opacity:1"
                    id="path90"
                    inkscape:connector-curvature="0"/>
            <path
                    d="m 107.733,69.5352 c 0.02,-0.0387 -0.019,-0.0965 0.02,-0.1161 0.096,-0.7515 0.289,-1.407 0.501,-2.1011 0.559,-0.8871 1.195,-1.7352 1.581,-2.7571 0.038,-0.1734 0.135,-0.3082 0.154,-0.482 -0.058,0 -0.039,-0.0574 -0.039,-0.0961 -0.462,-1.1375 -0.944,-2.2363 -1.349,-3.3933 l -0.231,-0.154 c -3.355,-0.0578 -6.285,-1.1566 -9.1192,-2.4484 -0.9641,-0.4433 -1.7738,-1.0027 -2.6992,-1.4844 -0.3856,0.0383 -0.6364,0.3274 -0.9637,0.5012 -0.0965,0.0965 -0.1543,0.2313 -0.1543,0.4047 -0.1543,0.675 -0.0195,1.4652 0.0769,2.1207 0.1543,0.1156 0.193,0.3473 0.3086,0.5207 0.8676,1.0219 2.0434,1.8508 3.2,2.6988 1.6769,1.1762 3.7209,2.2559 5.8029,2.9496 0.212,0 0.27,-0.1543 0.308,-0.3086 -0.038,-0.173 0.059,-0.2312 0.059,-0.3851 0.192,-0.6942 0.501,-1.2727 0.963,-1.7547 0.078,-0.1348 0.27,-0.1348 0.405,-0.0961 0.154,0.0961 0.174,0.2695 0.174,0.4816 -0.097,0.0196 -0.02,0.1352 -0.077,0.193 -0.405,0.7711 -0.444,2.1399 -0.174,3.0074 -0.096,1.0989 0.154,2.0821 0.829,2.6993 0.077,0.0961 0.405,0.1925 0.424,0"
                    style="fill:#ffffff;fill-opacity:1;fill-rule:nonzero;stroke:none;stroke-width:0.1"
                    id="path92"
                    inkscape:connector-curvature="0"/>
            <path
                    d="m 107.733,69.5352 c 0.02,-0.0387 -0.019,-0.0965 0.02,-0.1161 0.096,-0.7515 0.289,-1.407 0.501,-2.1011 0.559,-0.8871 1.195,-1.7352 1.581,-2.7571 0.038,-0.1734 0.135,-0.3082 0.154,-0.482 -0.058,0 -0.039,-0.0574 -0.039,-0.0961 -0.462,-1.1375 -0.944,-2.2363 -1.349,-3.3933 l -0.231,-0.154 c -3.355,-0.0578 -6.285,-1.1566 -9.1192,-2.4484 -0.9641,-0.4433 -1.7738,-1.0027 -2.6992,-1.4844 -0.3856,0.0383 -0.6364,0.3274 -0.9637,0.5012 -0.0965,0.0965 -0.1543,0.2313 -0.1543,0.4047 -0.1543,0.675 -0.0195,1.4652 0.0769,2.1207 0.1543,0.1156 0.193,0.3473 0.3086,0.5207 0.8676,1.0219 2.0434,1.8508 3.2,2.6988 1.6769,1.1762 3.7209,2.2559 5.8029,2.9496 0.212,0 0.27,-0.1543 0.308,-0.3086 -0.038,-0.173 0.059,-0.2312 0.059,-0.3851 0.192,-0.6942 0.501,-1.2727 0.963,-1.7547 0.078,-0.1348 0.27,-0.1348 0.405,-0.0961 0.154,0.0961 0.174,0.2695 0.174,0.4816 -0.097,0.0196 -0.02,0.1352 -0.077,0.193 -0.405,0.7711 -0.444,2.1399 -0.174,3.0074 -0.096,1.0989 0.154,2.0821 0.829,2.6993 0.077,0.0961 0.405,0.1925 0.424,0 z"
                    style="fill:none;stroke:#ffffff;stroke-width:0.5;stroke-linecap:square;stroke-linejoin:miter;stroke-miterlimit:2;stroke-dasharray:none;stroke-opacity:1"
                    id="path94"
                    inkscape:connector-curvature="0"/>
            <path
                    d="m 146.599,67.9926 0.039,-0.5203 c -0.077,-0.0582 -0.077,-0.116 -0.097,-0.2121 -0.154,-0.2313 -0.366,-0.4434 -0.694,-0.5207 -0.501,-0.0961 -0.886,0.1929 -1.214,0.4242 -0.078,0.289 -0.27,0.4629 -0.193,0.8289 0.058,0.1156 0.096,0.2121 0.135,0.3277 0.173,0.2699 0.52,0.4438 0.906,0.4629 0.559,0 0.983,-0.3664 1.118,-0.7906"
                    style="fill:#4dc6f4;fill-opacity:1;fill-rule:nonzero;stroke:none;stroke-width:0.1"
                    id="path96"
                    inkscape:connector-curvature="0"/>
            <path
                    d="m 146.599,67.9926 0.039,-0.5203 c -0.077,-0.0582 -0.077,-0.116 -0.097,-0.2121 -0.154,-0.2313 -0.366,-0.4434 -0.694,-0.5207 -0.501,-0.0961 -0.886,0.1929 -1.214,0.4242 -0.078,0.289 -0.27,0.4629 -0.193,0.8289 0.058,0.1156 0.096,0.2121 0.135,0.3277 0.173,0.2699 0.52,0.4438 0.906,0.4629 0.559,0 0.983,-0.3664 1.118,-0.7906 z"
                    style="fill:none;stroke:#ffffff;stroke-width:0.30000001;stroke-linecap:square;stroke-linejoin:miter;stroke-miterlimit:2;stroke-dasharray:none;stroke-opacity:1"
                    id="path98"
                    inkscape:connector-curvature="0"/>
            <path
                    d="m 136.439,66.4309 c -0.52,-0.443 -1.234,-0.7325 -1.793,-1.1371 -0.347,-0.077 -0.366,0.2503 -0.52,0.3855 v 0.0965 c 0.54,0.4047 1.157,0.8289 1.851,1.0988 0.25,-0.0578 0.366,-0.2891 0.462,-0.4437"
                    style="fill:#4dc6f4;fill-opacity:1;fill-rule:nonzero;stroke:none;stroke-width:0.1"
                    id="path100"
                    inkscape:connector-curvature="0"/>
            <path
                    d="m 136.439,66.4309 c -0.52,-0.443 -1.234,-0.7325 -1.793,-1.1371 -0.347,-0.077 -0.366,0.2503 -0.52,0.3855 v 0.0965 c 0.54,0.4047 1.157,0.8289 1.851,1.0988 0.25,-0.0578 0.366,-0.2891 0.462,-0.4437 z"
                    style="fill:none;stroke:#ffffff;stroke-width:0.2;stroke-linecap:square;stroke-linejoin:miter;stroke-miterlimit:2;stroke-dasharray:none;stroke-opacity:1"
                    id="path102"
                    inkscape:connector-curvature="0"/>
            <path
                    d="m 137.114,65.1586 c -0.81,-0.366 -1.523,-0.8867 -2.275,-1.2914 -0.193,0.1156 -0.366,0.2695 -0.405,0.5012 0.559,0.5781 1.408,0.9636 2.159,1.3496 0.309,-0.0578 0.463,-0.2895 0.521,-0.5594"
                    style="fill:#4dc6f4;fill-opacity:1;fill-rule:nonzero;stroke:none;stroke-width:0.1"
                    id="path104"
                    inkscape:connector-curvature="0"/>
            <path
                    d="m 137.114,65.1586 c -0.81,-0.366 -1.523,-0.8867 -2.275,-1.2914 -0.193,0.1156 -0.366,0.2695 -0.405,0.5012 0.559,0.5781 1.408,0.9636 2.159,1.3496 0.309,-0.0578 0.463,-0.2895 0.521,-0.5594 z"
                    style="fill:none;stroke:#ffffff;stroke-width:0.2;stroke-linecap:square;stroke-linejoin:miter;stroke-miterlimit:2;stroke-dasharray:none;stroke-opacity:1"
                    id="path106"
                    inkscape:connector-curvature="0"/>
            <path
                    d="m 112.514,63.5391 v -0.2118 h -0.019 c -0.694,-1.3687 -1.253,-2.8148 -1.793,-4.2992 -0.347,-0.1929 -0.636,0.1543 -0.867,0.2891 -0.155,0.0965 -0.078,0.3469 -0.097,0.5207 0.039,0.0965 0.116,0.1926 0.116,0.2891 0.521,1.3496 1.022,2.6605 1.639,3.9136 0.366,0.2504 0.694,-0.2121 0.983,-0.3472 l 0.038,-0.1543"
                    style="fill:#ffffff;fill-opacity:1;fill-rule:nonzero;stroke:none;stroke-width:0.1"
                    id="path108"
                    inkscape:connector-curvature="0"/>
            <path
                    d="m 112.514,63.5391 v -0.2118 h -0.019 c -0.694,-1.3687 -1.253,-2.8148 -1.793,-4.2992 -0.347,-0.1929 -0.636,0.1543 -0.867,0.2891 -0.155,0.0965 -0.078,0.3469 -0.097,0.5207 0.039,0.0965 0.116,0.1926 0.116,0.2891 0.521,1.3496 1.022,2.6605 1.639,3.9136 0.366,0.2504 0.694,-0.2121 0.983,-0.3472 z"
                    style="fill:none;stroke:#ffffff;stroke-width:0.5;stroke-linecap:square;stroke-linejoin:miter;stroke-miterlimit:2;stroke-dasharray:none;stroke-opacity:1"
                    id="path110"
                    inkscape:connector-curvature="0"/>
            <path
                    d="m 100.716,62.5559 c 0.058,-0.1157 0.038,-0.2504 0.038,-0.3856 -0.578,-0.4625 -1.2911,-0.848 -1.8888,-1.2914 -0.9062,-0.675 -1.7929,-1.4074 -2.7379,-2.0437 1.1375,1.4652 2.6993,2.6605 4.2417,3.8558 0.135,0.1735 0.289,-0.0387 0.347,-0.1351"
                    style="fill:#000000;fill-opacity:1;fill-rule:nonzero;stroke:none;stroke-width:0.1"
                    id="path112"
                    inkscape:connector-curvature="0"/>
            <path
                    d="m 100.716,62.5559 c 0.058,-0.1157 0.038,-0.2504 0.038,-0.3856 -0.578,-0.4625 -1.2911,-0.848 -1.8888,-1.2914 -0.9062,-0.675 -1.7929,-1.4074 -2.7379,-2.0437 1.1375,1.4652 2.6993,2.6605 4.2417,3.8558 0.135,0.1735 0.289,-0.0387 0.347,-0.1351 z"
                    style="fill:none;stroke:#ffffff;stroke-width:0.2;stroke-linecap:square;stroke-linejoin:miter;stroke-miterlimit:2;stroke-dasharray:none;stroke-opacity:1"
                    id="path114"
                    inkscape:connector-curvature="0"/>
            <path
                    d="m 101.391,60.6668 c 0.212,-0.559 -0.405,-0.559 -0.675,-0.7711 -1.3883,-0.6168 -2.5258,-1.3883 -3.8176,-2.0629 v 0.1543 c 1.1954,1.1375 2.5836,2.1207 4.1836,2.9688 0.212,0.0578 0.251,-0.1735 0.309,-0.2891"
                    style="fill:#000000;fill-opacity:1;fill-rule:nonzero;stroke:none;stroke-width:0.1"
                    id="path116"
                    inkscape:connector-curvature="0"/>
            <path
                    d="m 101.391,60.6668 c 0.212,-0.559 -0.405,-0.559 -0.675,-0.7711 -1.3883,-0.6168 -2.5258,-1.3883 -3.8176,-2.0629 v 0.1543 c 1.1954,1.1375 2.5836,2.1207 4.1836,2.9688 0.212,0.0578 0.251,-0.1735 0.309,-0.2891 z"
                    style="fill:none;stroke:#ffffff;stroke-width:0.2;stroke-linecap:square;stroke-linejoin:miter;stroke-miterlimit:2;stroke-dasharray:none;stroke-opacity:1"
                    id="path118"
                    inkscape:connector-curvature="0"/>
            <path
                    d="m 139.37,40.9445 h -0.02 c -0.057,-0.3277 0.097,-0.4816 0.174,-0.7132 0.771,-0.7516 1.504,-1.5231 2.448,-2.159 0.193,-0.0965 0.405,-0.2891 0.694,-0.27 1.273,0.559 2.526,1.2145 3.721,1.87 h 0.251 c 1.041,-0.7907 1.908,-1.716 3.084,-2.4289 0.135,-0.0965 0.347,-0.0965 0.463,0 0.887,1.2722 1.697,2.6023 2.429,3.9711 0.656,1.2726 1.427,2.4871 1.966,3.8367 0.097,0.0578 0.116,0.1926 0.155,0.289 0.135,0.3856 0.347,0.6746 0.482,1.0797 h 0.019 c 0.058,0.1348 0.058,0.3278 0.174,0.4242 0.308,0.8481 0.655,1.6579 0.925,2.5446 0.482,1.2531 0.81,2.6414 1.137,4.0101 h 0.02 c -0.02,0.2121 0.077,0.6555 -0.251,0.5012 -1.562,-1.1184 -3.412,-2.2172 -5.514,-2.5449 -4.048,-0.7324 -8.02,0.3086 -11.085,2.3715 h -0.174 c -0.231,-0.0965 -0.175,-0.4051 -0.134,-0.752 0.26,-3.4605 0.404,-5.8223 -0.964,-12.0301"
                    style="fill:#ffffff;fill-opacity:1;fill-rule:nonzero;stroke:none;stroke-width:0.1"
                    id="path120"
                    inkscape:connector-curvature="0"/>
            <path
                    d="m 139.37,40.9445 h -0.02 c -0.057,-0.3277 0.097,-0.4816 0.174,-0.7132 0.771,-0.7516 1.504,-1.5231 2.448,-2.159 0.193,-0.0965 0.405,-0.2891 0.694,-0.27 1.273,0.559 2.526,1.2145 3.721,1.87 h 0.251 c 1.041,-0.7907 1.908,-1.716 3.084,-2.4289 0.135,-0.0965 0.347,-0.0965 0.463,0 0.887,1.2722 1.697,2.6023 2.429,3.9711 0.656,1.2726 1.427,2.4871 1.966,3.8367 0.097,0.0578 0.116,0.1926 0.155,0.289 0.135,0.3856 0.347,0.6746 0.482,1.0797 h 0.019 c 0.058,0.1348 0.058,0.3278 0.174,0.4242 0.308,0.8481 0.655,1.6579 0.925,2.5446 0.482,1.2531 0.81,2.6414 1.137,4.0101 h 0.02 c -0.02,0.2121 0.077,0.6555 -0.251,0.5012 -1.562,-1.1184 -3.412,-2.2172 -5.514,-2.5449 -4.048,-0.7324 -8.02,0.3086 -11.085,2.3715 h -0.174 c -0.231,-0.0965 -0.175,-0.4051 -0.134,-0.752 0.26,-3.4605 0.404,-5.8223 -0.964,-12.0301 z"
                    style="fill:none;stroke:#ffffff;stroke-width:0.5;stroke-linecap:square;stroke-linejoin:miter;stroke-miterlimit:2;stroke-dasharray:none;stroke-opacity:1"
                    id="path122"
                    inkscape:connector-curvature="0"/>
            <path
                    d="m 148.114,44.6016 c 0.427,-0.1457 0.946,0.2418 1.158,0.8656 0.213,0.6234 0.038,1.2469 -0.39,1.3926 -0.427,0.1457 -0.946,-0.2418 -1.158,-0.8657 -0.213,-0.6234 -0.038,-1.2472 0.39,-1.3925"
                    style="fill:#4dc6f4;fill-opacity:1;fill-rule:nonzero;stroke:none;stroke-width:0.1"
                    id="path124"
                    inkscape:connector-curvature="0"/>
            <path
                    d="m 148.114,44.6016 c 0.427,-0.1457 0.946,0.2418 1.158,0.8656 0.213,0.6234 0.038,1.2469 -0.39,1.3926 -0.427,0.1457 -0.946,-0.2418 -1.158,-0.8657 -0.213,-0.6234 -0.038,-1.2472 0.39,-1.3925 z"
                    style="fill:none;stroke:#ffffff;stroke-width:0.30000001;stroke-linecap:butt;stroke-linejoin:miter;stroke-miterlimit:4;stroke-dasharray:none;stroke-opacity:1"
                    id="path126"
                    inkscape:connector-curvature="0"/>
            <path
                    d="m 146.716,41.4203 c 0.428,-0.1453 0.947,0.2422 1.159,0.8656 0.212,0.6235 0.038,1.2473 -0.39,1.393 -0.428,0.1453 -0.947,-0.2422 -1.159,-0.8656 -0.212,-0.6238 -0.038,-1.2473 0.39,-1.393"
                    style="fill:#4dc6f4;fill-opacity:1;fill-rule:nonzero;stroke:none;stroke-width:0.1"
                    id="path128"
                    inkscape:connector-curvature="0"/>
            <path
                    d="m 146.716,41.4203 c 0.428,-0.1453 0.947,0.2422 1.159,0.8656 0.212,0.6235 0.038,1.2473 -0.39,1.393 -0.428,0.1453 -0.947,-0.2422 -1.159,-0.8656 -0.212,-0.6238 -0.038,-1.2473 0.39,-1.393 z"
                    style="fill:none;stroke:#ffffff;stroke-width:0.30000001;stroke-linecap:butt;stroke-linejoin:miter;stroke-miterlimit:4;stroke-dasharray:none;stroke-opacity:1"
                    id="path130"
                    inkscape:connector-curvature="0"/>
            <path
                    d="m 144.835,51.0563 -0.723,-4.434 5.495,2.4578 3.807,-2.5543 1.928,5.2535 -1.301,-0.5785 -1.061,-2.8914 -3.229,2.0242 -4.048,-1.7836 0.193,2.1207 -1.061,0.3856"
                    style="fill:#4dc6f4;fill-opacity:1;fill-rule:nonzero;stroke:none;stroke-width:0.1"
                    id="path132"
                    inkscape:connector-curvature="0"/>
            <path
                    d="m 144.835,51.0563 -0.723,-4.434 5.495,2.4578 3.807,-2.5543 1.928,5.2535 -1.301,-0.5785 -1.061,-2.8914 -3.229,2.0242 -4.048,-1.7836 0.193,2.1207 z"
                    style="fill:none;stroke:#ffffff;stroke-width:0.30000001;stroke-linecap:butt;stroke-linejoin:miter;stroke-miterlimit:4;stroke-dasharray:none;stroke-opacity:1"
                    id="path134"
                    inkscape:connector-curvature="0"/>
            <path
                    d="m 195.6,64.6805 c -0.139,0.1277 -0.279,0.255 -0.418,0.382 l -5.379,5.0316 -2.005,1.87 c -0.251,0.3468 -0.771,0.4629 -0.656,1.0601 0.078,0.1543 -0.135,0.2317 0,0.3473 0,0.5398 0.058,1.1375 -0.231,1.5039 -0.366,0.2891 -0.173,0.9828 -0.328,1.4457 -0.077,0.4434 -0.115,0.8867 -0.347,1.2144 -0.27,0.5594 -0.983,0.7711 -1.504,1.1375 -0.019,0.4051 -0.192,0.6942 -0.385,0.945 -0.771,0.7515 -2.256,0.5972 -3.258,0.2886 -0.444,-0.0961 -0.752,-0.5586 -1.215,-0.4816 -3.99,3.6242 -7.808,7.3453 -11.702,11.0273 -0.174,0.1352 -0.231,0.3665 -0.289,0.5786 -0.212,0.7324 0.231,1.2914 0.713,1.6578 0.868,0.559 1.658,-0.2504 2.545,-0.2313 0.771,-0.0386 1.427,0.3856 1.716,0.9063 0.019,0.1156 0.038,0.1734 0.096,0.2312 -0.058,0.2508 0.077,0.366 0.058,0.5977 h 0.019 c 0,0.3855 -0.135,0.6746 -0.212,1.0215 -0.52,0.9449 -1.716,1.523 -2.988,1.6004 -0.925,0.1543 -1.793,-0.1157 -2.603,-0.3856 -1.966,-0.8098 -3.104,-2.3328 -3.373,-4.4148 h -0.039 c -0.038,-1.6965 0.386,-3.0461 1.292,-4.0485 3.72,-3.5859 7.518,-7.1527 11.239,-10.7578 0.232,-0.4625 -0.25,-0.8098 -0.25,-1.3301 h -0.019 c -0.078,-0.5785 0.115,-0.964 0.192,-1.4652 0.077,-0.3277 0.367,-0.5977 0.27,-0.9832 0,-0.4434 -0.694,-0.1352 -0.713,-0.559 -0.637,-0.4629 -1.118,-1.0605 -1.755,-1.5426 -0.366,-0.2312 -0.539,0.2121 -0.828,0.2508 -2.275,-2.082 -4.916,-3.9137 -7.828,-5.5523 -0.193,-0.0578 -0.405,-0.2313 -0.578,-0.0383 -0.212,0.4238 -0.135,1.0601 -0.251,1.5422 -0.134,0.4625 -0.115,1.0219 -0.54,1.2722 -0.115,-0.0769 -0.135,-0.2312 -0.154,-0.4046 0,-0.1161 -0.077,-0.2122 -0.115,-0.3086 -0.328,-0.9446 -0.848,-1.7543 -1.832,-2.2364 -0.154,-0.0386 -0.308,0.0578 -0.366,0.193 -0.174,1.7352 -0.424,3.393 -1.003,4.8195 -0.983,2.5832 -2.41,4.8778 -4.395,6.7477 -0.367,0.5012 -1.003,0.8098 -1.465,1.2527 -0.155,0.2317 -0.482,0.3086 -0.521,0.6559 0.328,0.3273 0.752,0.5976 1.137,0.8676 1.061,1.0214 2.198,1.9664 2.468,3.5277 -0.039,0.1352 -0.077,0.2699 -0.135,0.4242 -0.173,0.2508 -0.559,0.4434 -0.964,0.3473 -0.347,-0.0774 -0.501,-0.3086 -0.674,-0.5399 -0.656,-1.3882 -1.813,-2.4293 -3.124,-3.3546 -0.154,-0.0387 -0.347,-0.1157 -0.482,-0.0192 -0.597,0.4434 -1.06,1.0024 -1.696,1.4074 -0.174,0.2891 -0.482,0.4625 -0.714,0.7325 -0.79,1.0218 -1.715,1.9277 -2.429,3.0074 l -0.096,0.2121 c -1.253,1.4652 -2.198,3.2004 -3.065,4.9355 -0.289,0.6168 -0.617,1.195 -1.388,1.4457 -2.179,0.559 -4.377,-0.0964 -6.362,-0.5781 -4.3,-1.5426 -7.962,-4.0101 -10.662,-6.9019 -0.944,-0.9832 -1.754,-2.0629 -2.467,-3.2004 -0.386,-0.3856 -0.501,-0.9254 -0.829,-1.3496 -0.174,-0.6364 -0.54,-1.118 -0.694,-1.7735 -0.289,-0.5976 -0.328,-1.8894 0.019,-2.4676 2.217,-1.8316 4.164,-3.8753 5.687,-6.1886 0.116,-0.1157 0.155,-0.366 0.405,-0.27 0.309,0.2122 0.54,0.5208 0.752,0.829 0.906,2.1015 2.217,3.9332 3.779,5.5718 3.142,3.3352 7.711,6.6703 13.225,7.3836 0.54,-0.0191 1.118,0.1539 1.6,-0.0578 0.116,-0.1156 0.251,-0.2508 0.154,-0.4242 -1.099,-0.1734 -2.217,-0.3082 -3.238,-0.6746 v -0.0774 c 0.944,-0.9445 1.869,-1.889 2.872,-2.7757 l 0.251,-0.1161 c 0.964,0.1161 1.87,0.3856 2.737,0.7329 h 0.328 c 0.154,-0.1352 0.347,-0.193 0.385,-0.3856 -0.057,-0.0773 -0.077,-0.1734 -0.154,-0.2312 -1.195,-0.675 -2.544,-1.0606 -3.913,-1.3305 -3.085,-0.5785 -6.035,-1.5422 -8.907,-2.5641 -3.894,-1.5039 -6.998,-3.7207 -9.292,-6.4777 -0.945,-1.1375 -1.504,-2.5063 -1.87,-4.0676 h -0.02 c -0.019,-0.1488 -0.035,-0.2953 -0.046,-0.4398 h 52.098 c 0.152,0.2105 0.417,0.3347 0.56,0.5554 0.482,0.4625 1.06,0.9254 1.388,1.4266 -0.096,0.3086 0.193,0.4047 0.289,0.6168 0.637,0.5977 1.215,1.2918 2.256,1.5617 0.501,0.1543 1.041,1.041 1.581,0.3469 1.582,-1.5469 3.26,-3.0133 4.907,-4.5074 h 5.748"
                    style="fill:#000000;fill-opacity:1;fill-rule:nonzero;stroke:none;stroke-width:0.1"
                    id="path136"
                    inkscape:connector-curvature="0"/>
            <path
                    d="m 114.4,64.6805 c -0.193,0.1191 -0.384,0.2402 -0.575,0.3625 l -0.289,0.0965 c -0.559,-0.6555 -1.022,0.3082 -1.523,0.4625 -0.347,0.1738 -0.636,0.6554 -1.137,0.4628 -0.27,0.0579 -0.27,0.3278 -0.444,0.4434 -0.385,0.6941 -1.002,1.1953 -1.407,1.8699 -0.058,0.6172 -0.251,1.1953 -0.135,1.8699 h 0.019 c -0.038,0.2704 0.077,0.6364 -0.096,0.8102 -0.193,0.2117 -0.579,0.1734 -0.868,0.1348 -1.581,-0.2504 -2.294,-1.4457 -2.602,-2.7571 h -0.02 l -0.019,-0.3277 h -0.019 l -0.019,-0.559 h -0.039 c 0.058,-0.1351 -0.058,-0.1734 -0.135,-0.2312 -1.774,-0.7133 -3.605,-1.5039 -5.2244,-2.4485 -0.0957,-0.0625 -0.1918,-0.1257 -0.2887,-0.189 H 114.4"
                    style="fill:#000000;fill-opacity:1;fill-rule:nonzero;stroke:none;stroke-width:0.1"
                    id="path138"
                    inkscape:connector-curvature="0"/>
            <path
                    d="m 189.852,64.6805 c 1.021,-0.9266 2.03,-1.8637 2.997,-2.8375 2.063,-1.7739 3.971,-3.6246 5.938,-5.4754 0.347,-0.2121 0.54,-0.7711 1.137,-0.559 1.099,0.4434 1.87,1.1566 2.121,2.2363 h 0.019 c 0.116,0.5977 -0.328,0.7711 -0.578,1.1184 -1.981,1.8187 -3.912,3.7051 -5.886,5.5172 h -5.748"
                    style="fill:#000000;fill-opacity:1;fill-rule:nonzero;stroke:none;stroke-width:0.1"
                    id="path140"
                    inkscape:connector-curvature="0"/>
            <path
                    d="m 99.5789,64.6805 c -2.2223,-1.4578 -4.6707,-3.1239 -5.225,-5.7102 h -0.0195 l -0.0192,-0.3855 h -0.0386 c 0.0195,-0.3856 0.1738,-0.7715 0.0578,-1.1567 -0.0192,-0.0386 0.0195,-0.1156 -0.0578,-0.1156 0.0773,-0.1738 -0.1157,-0.2508 -0.0192,-0.4051 -0.0191,-0.8097 1.1375,-0.7519 1.2918,-1.4457 0.4242,-0.4051 1.0797,-0.0773 1.5422,0.077 2.834,1.6578 5.9766,2.8148 9.3696,3.2582 0.636,0.0578 1.407,0.1347 2.024,-0.0582 0.463,-0.4817 1.234,-0.7324 1.658,-1.2528 -0.019,-0.4433 -0.135,-0.8097 -0.25,-1.1761 0,-0.1157 -0.078,-0.2121 -0.097,-0.3278 -0.039,-0.1543 0.019,-0.2699 0.135,-0.3468 4.376,-2.6993 9.485,-4.2028 14.729,-5.1477 3.644,-0.6555 7.461,-0.848 11.297,-1.041 l 0.193,-0.0961 -0.058,-0.0965 c -0.54,-0.1738 -1.137,-0.2121 -1.658,-0.4051 -0.13,-3.1664 -0.876,-9.523 -1.295,-10.9738 2.28,-3.2238 5.788,-5.3289 10.037,-5.3289 2.987,0 5.73,1.0394 7.888,2.7766 l -0.012,0.0121 c 2.411,3.7207 7.23,12.6371 8.021,17.7941 0.038,0.1926 0.077,0.4047 0.27,0.4625 l 3.412,0.9641 c 6.284,1.9086 12.068,5.1859 16.271,9.1574 0.019,0.2699 -0.173,0.366 -0.27,0.5781 -0.006,0.1641 0.041,0.2871 0.115,0.3895 h -52.098 c -0.196,-2.4438 0.72,-4.3043 2.668,-5.3055 0.694,-0.3855 1.504,-0.4625 2.294,-0.6363 0.135,-0.1926 0.328,-0.3469 0.309,-0.636 -0.097,-0.0386 -0.212,-0.0964 -0.328,-0.0386 -6.17,1.2265 -12.161,3.4207 -17.316,6.6164 H 99.5789"
                    style="fill:#000000;fill-opacity:1;fill-rule:nonzero;stroke:none;stroke-width:0.1"
                    id="path142"
                    inkscape:connector-curvature="0"/>
            <path
                    d="m 151.052,35.3348 c 2.411,3.7207 7.23,12.6371 8.021,17.7941 0.038,0.1926 0.077,0.4047 0.27,0.4625 l 3.412,0.9641 c 6.284,1.9086 12.068,5.1859 16.271,9.1574 0.019,0.2699 -0.173,0.366 -0.27,0.5781 -0.019,0.5016 0.463,0.6172 0.675,0.9449 0.482,0.4625 1.06,0.9254 1.388,1.4266 -0.096,0.3086 0.193,0.4047 0.289,0.6168 0.637,0.5977 1.215,1.2918 2.256,1.5617 0.501,0.1543 1.041,1.041 1.581,0.3469 2.564,-2.5063 5.378,-4.8004 7.904,-7.3449 2.063,-1.7739 3.971,-3.6246 5.938,-5.4754 0.347,-0.2121 0.54,-0.7711 1.137,-0.559 1.099,0.4434 1.87,1.1566 2.121,2.2363 h 0.019 c 0.116,0.5977 -0.328,0.7711 -0.578,1.1184 -2.121,1.9469 -4.184,3.9711 -6.304,5.8992 l -5.379,5.0316 -2.005,1.87 c -0.251,0.3468 -0.771,0.4629 -0.656,1.0601 0.078,0.1543 -0.135,0.2317 0,0.3473 0,0.5398 0.058,1.1375 -0.231,1.5039 -0.366,0.2891 -0.173,0.9828 -0.328,1.4457 -0.077,0.4434 -0.115,0.8867 -0.347,1.2144 -0.27,0.5594 -0.983,0.7711 -1.504,1.1375 -0.019,0.4051 -0.192,0.6942 -0.385,0.945 -0.771,0.7515 -2.256,0.5972 -3.258,0.2886 -0.444,-0.0961 -0.752,-0.5586 -1.215,-0.4816 -3.99,3.6242 -7.808,7.3453 -11.702,11.0273 -0.174,0.1352 -0.231,0.3665 -0.289,0.5786 -0.212,0.7324 0.231,1.2914 0.713,1.6578 0.868,0.559 1.658,-0.2504 2.545,-0.2313 0.771,-0.0386 1.427,0.3856 1.716,0.9063 0.019,0.1156 0.038,0.1734 0.096,0.2312 -0.058,0.2508 0.077,0.366 0.058,0.5977 h 0.019 c 0,0.3855 -0.135,0.6746 -0.212,1.0215 -0.52,0.9449 -1.716,1.523 -2.988,1.6004 -0.925,0.1543 -1.793,-0.1157 -2.603,-0.3856 -1.966,-0.8098 -3.104,-2.3328 -3.373,-4.4148 h -0.039 c -0.038,-1.6965 0.386,-3.0461 1.292,-4.0485 3.72,-3.5859 7.518,-7.1527 11.239,-10.7578 0.232,-0.4625 -0.25,-0.8098 -0.25,-1.3301 h -0.019 c -0.078,-0.5785 0.115,-0.964 0.192,-1.4652 0.077,-0.3277 0.367,-0.5977 0.27,-0.9832 0,-0.4434 -0.694,-0.1352 -0.713,-0.559 -0.637,-0.4629 -1.118,-1.0605 -1.755,-1.5426 -0.366,-0.2312 -0.539,0.2121 -0.828,0.2508 -2.275,-2.082 -4.916,-3.9137 -7.828,-5.5523 -0.193,-0.0578 -0.405,-0.2313 -0.578,-0.0383 -0.212,0.4238 -0.135,1.0601 -0.251,1.5422 -0.134,0.4625 -0.115,1.0219 -0.54,1.2722 -0.115,-0.0769 -0.135,-0.2312 -0.154,-0.4046 0,-0.1161 -0.077,-0.2122 -0.115,-0.3086 -0.328,-0.9446 -0.848,-1.7543 -1.832,-2.2364 -0.154,-0.0386 -0.308,0.0578 -0.366,0.193 -0.174,1.7352 -0.424,3.393 -1.003,4.8195 -0.983,2.5832 -2.41,4.8778 -4.395,6.7477 -0.367,0.5012 -1.003,0.8098 -1.465,1.2527 -0.155,0.2317 -0.482,0.3086 -0.521,0.6559 0.328,0.3273 0.752,0.5976 1.137,0.8676 1.061,1.0214 2.198,1.9664 2.468,3.5277 -0.039,0.1352 -0.077,0.2699 -0.135,0.4242 -0.173,0.2508 -0.559,0.4434 -0.964,0.3473 -0.347,-0.0774 -0.501,-0.3086 -0.674,-0.5399 -0.656,-1.3882 -1.813,-2.4293 -3.124,-3.3546 -0.154,-0.0387 -0.347,-0.1157 -0.482,-0.0192 -0.597,0.4434 -1.06,1.0024 -1.696,1.4074 -0.174,0.2891 -0.482,0.4625 -0.714,0.7325 -0.79,1.0218 -1.715,1.9277 -2.429,3.0074 l -0.096,0.2121 c -1.253,1.4652 -2.198,3.2004 -3.065,4.9355 -0.289,0.6168 -0.617,1.195 -1.388,1.4457 -2.179,0.559 -4.377,-0.0964 -6.362,-0.5781 -4.3,-1.5426 -7.962,-4.0101 -10.662,-6.9019 -0.944,-0.9832 -1.754,-2.0629 -2.467,-3.2004 -0.386,-0.3856 -0.501,-0.9254 -0.829,-1.3496 -0.174,-0.6364 -0.54,-1.118 -0.694,-1.7735 -0.289,-0.5976 -0.328,-1.8894 0.019,-2.4676 2.217,-1.8316 4.164,-3.8753 5.687,-6.1886 0.116,-0.1157 0.155,-0.366 0.405,-0.27 0.309,0.2122 0.54,0.5208 0.752,0.829 0.906,2.1015 2.217,3.9332 3.779,5.5718 3.142,3.3352 7.711,6.6703 13.225,7.3836 0.54,-0.0191 1.118,0.1539 1.6,-0.0578 0.116,-0.1156 0.251,-0.2508 0.154,-0.4242 -1.099,-0.1734 -2.217,-0.3082 -3.238,-0.6746 v -0.0774 c 0.944,-0.9445 1.869,-1.889 2.872,-2.7757 l 0.251,-0.1161 c 0.964,0.1161 1.87,0.3856 2.737,0.7329 h 0.328 c 0.154,-0.1352 0.347,-0.193 0.385,-0.3856 -0.057,-0.0773 -0.077,-0.1734 -0.154,-0.2312 -1.195,-0.675 -2.544,-1.0606 -3.913,-1.3305 -3.085,-0.5785 -6.035,-1.5422 -8.907,-2.5641 -3.894,-1.5039 -6.998,-3.7207 -9.292,-6.4777 -0.945,-1.1375 -1.504,-2.5063 -1.87,-4.0676 h -0.02 c -0.347,-2.6605 0.559,-4.6848 2.622,-5.7453 0.694,-0.3855 1.504,-0.4625 2.294,-0.6363 0.135,-0.1926 0.328,-0.3469 0.309,-0.636 -0.097,-0.0386 -0.212,-0.0964 -0.328,-0.0386 -6.4,1.2726 -12.608,3.5859 -17.891,6.9789 l -0.289,0.0965 c -0.559,-0.6555 -1.022,0.3082 -1.523,0.4625 -0.347,0.1738 -0.636,0.6554 -1.137,0.4628 -0.27,0.0579 -0.27,0.3278 -0.444,0.4434 -0.385,0.6941 -1.002,1.1953 -1.407,1.8699 -0.058,0.6172 -0.251,1.1953 -0.135,1.8699 h 0.019 c -0.038,0.2704 0.077,0.6364 -0.096,0.8102 -0.193,0.2117 -0.579,0.1734 -0.868,0.1348 -1.581,-0.2504 -2.294,-1.4457 -2.602,-2.7571 h -0.02 l -0.019,-0.3277 h -0.019 l -0.019,-0.559 h -0.039 c 0.058,-0.1351 -0.058,-0.1734 -0.135,-0.2312 -1.774,-0.7133 -3.605,-1.5039 -5.2244,-2.4485 -2.2942,-1.5039 -4.9356,-3.2004 -5.5137,-5.8992 h -0.0195 l -0.0192,-0.3855 h -0.0386 c 0.0195,-0.3856 0.1738,-0.7715 0.0578,-1.1567 -0.0192,-0.0386 0.0195,-0.1156 -0.0578,-0.1156 0.0773,-0.1738 -0.1157,-0.2508 -0.0192,-0.4051 -0.0191,-0.8097 1.1375,-0.7519 1.2918,-1.4457 0.4242,-0.4051 1.0797,-0.0773 1.5422,0.077 2.834,1.6578 5.9766,2.8148 9.3696,3.2582 0.636,0.0578 1.407,0.1347 2.024,-0.0582 0.463,-0.4817 1.234,-0.7324 1.658,-1.2528 -0.019,-0.4433 -0.135,-0.8097 -0.25,-1.1761 0,-0.1157 -0.078,-0.2121 -0.097,-0.3278 -0.039,-0.1543 0.019,-0.2699 0.135,-0.3468 4.376,-2.6993 9.485,-4.2028 14.729,-5.1477 3.644,-0.6555 7.461,-0.848 11.297,-1.041 l 0.193,-0.0961 -0.058,-0.0965 c -0.54,-0.1738 -1.137,-0.2121 -1.658,-0.4051 -0.13,-3.1664 -0.876,-9.523 -1.295,-10.9738 2.28,-3.2238 5.788,-5.3289 10.037,-5.3289 2.987,0 5.73,1.0394 7.888,2.7766 z"
                    style="fill:none;stroke:#000000;stroke-width:0.40000001;stroke-linecap:butt;stroke-linejoin:miter;stroke-miterlimit:4;stroke-dasharray:none;stroke-opacity:1"
                    id="path144"
                    inkscape:connector-curvature="0"/>
            <path
                    d="m 171.777,94.6359 c 0.096,-0.2121 0.096,-0.4433 0.096,-0.7132 -0.173,-0.3086 -0.635,-0.4051 -1.021,-0.3469 -0.887,0.6359 -2.275,0.6551 -3.2,0.0574 -0.232,-0.2891 -0.656,-0.4816 -0.733,-0.8867 -0.058,-0.0961 -0.154,-0.1543 -0.135,-0.3277 -0.039,-0.0965 -0.116,-0.1735 -0.116,-0.2891 -0.115,-0.4629 -0.135,-1.3496 0.193,-1.7352 0.116,-0.3277 0.405,-0.5011 0.54,-0.8097 0.694,-0.8481 1.542,-1.5422 2.371,-2.2942 l 1.658,-1.5617 c 0.405,-0.4625 0.906,-0.9254 1.388,-1.3492 1.909,-1.9086 3.952,-3.7016 5.861,-5.6293 0.116,-0.3856 -0.54,-0.3473 -0.79,-0.5399 -0.155,-0.0964 -0.328,-0.1738 -0.501,-0.1351 -0.483,0.3086 -0.849,0.7328 -1.254,1.0988 -3.277,3.2196 -6.709,6.2852 -10.005,9.466 -0.714,0.6364 -1.022,1.5422 -1.157,2.5832 l -0.02,0.752 h 0.02 l 0.019,0.3086 h 0.019 c 0.367,1.5617 1.254,2.8531 3.008,3.3156 1.369,0.2508 2.93,-0.0383 3.759,-0.9637"
                    style="fill:#ffffff;fill-opacity:1;fill-rule:nonzero;stroke:none;stroke-width:0.1"
                    id="path146"
                    inkscape:connector-curvature="0"/>
            <path
                    d="m 138.791,90.684 c 1.022,-2.4488 2.526,-4.5692 4.107,-6.632 0.077,-0.0579 0.019,-0.2122 0.038,-0.3282 -1.06,-0.4047 -2.178,-0.7707 -3.219,-1.2527 -1.678,-0.7906 -3.085,-1.7352 -4.492,-2.7184 -0.559,0.0192 -0.636,0.5786 -0.964,0.8676 -1.465,1.793 -3.162,3.4508 -4.82,5.1086 -0.019,0.1352 -0.058,0.193 -0.058,0.3473 1.003,1.0988 2.449,1.8699 3.798,2.7183 1.562,0.8868 3.258,1.6774 5.051,2.159 0.289,0.0774 0.463,-0.0769 0.559,-0.2695"
                    style="fill:#ffffff;fill-opacity:1;fill-rule:nonzero;stroke:none;stroke-width:0.1"
                    id="path148"
                    inkscape:connector-curvature="0"/>
            <path
                    d="m 183.846,78.6539 c 0.212,-0.2508 0.173,-0.7137 0.308,-1.0027 0.328,-0.1735 0.81,-0.1157 1.099,-0.3856 0.405,-0.3277 0.443,-0.8676 0.54,-1.4074 -0.135,-0.1152 0.077,-0.1734 0,-0.3273 v -0.3473 h -0.02 c -0.057,-0.0961 0.02,-0.2504 -0.077,-0.3082 0.27,-0.4051 0.444,-0.8484 0.367,-1.4848 h -0.02 c -0.115,-1.234 -0.963,-1.9086 -2.043,-2.448 -0.251,0 -0.521,-0.193 -0.713,0 0.058,0.2504 0.25,0.4238 0.366,0.6168 0.366,0.5394 0.617,1.2144 0.771,1.9469 -0.019,0.0773 -0.019,0.1542 -0.115,0.1929 -0.54,-0.3277 -0.714,-0.9445 -1.138,-1.3687 -0.405,-0.4047 -0.752,-0.8676 -1.388,-1.0989 -0.289,-0.0582 -0.559,0.0579 -0.694,0.2313 -0.116,0.1734 -0.096,0.3855 -0.096,0.6168 0.443,0.5012 1.021,0.9445 1.311,1.5808 0.192,0.193 0.308,0.4434 0.366,0.752 0.231,0.2121 0.269,0.5398 0.308,0.8867 -0.019,0.0578 -0.096,0.1543 -0.173,0.0965 -0.637,-0.6746 -1.157,-1.3883 -2.005,-1.8699 -0.174,-0.0387 -0.386,-0.0195 -0.482,0.1156 -0.077,0.2121 -0.213,0.5203 -0.135,0.752 v 0.2121 c 0.038,0.0961 0.115,0.1925 0.115,0.3082 0.077,0.3277 0.309,0.5398 0.425,0.8293 -0.078,0.1734 0.115,0.1347 0.154,0.2117 0.462,0.5398 1.06,0.9641 1.234,1.716 h 0.038 c 0.039,0.4047 -0.135,0.752 -0.308,1.0602 -0.039,0.3664 0.463,0.289 0.694,0.4242 0.559,0.1734 1.06,-0.1543 1.311,-0.5012"
                    style="fill:#ffffff;fill-opacity:1;fill-rule:nonzero;stroke:none;stroke-width:0.1"
                    id="path150"
                    inkscape:connector-curvature="0"/>
            <path
                    d="m 124.139,78.6348 c 1.909,-1.5618 3.471,-3.3547 4.916,-5.2442 0.039,-0.0965 0.058,-0.1734 0.039,-0.289 -0.039,-0.1157 -0.154,-0.2313 -0.173,-0.3664 -0.155,-0.1926 -0.251,-0.4434 -0.405,-0.6168 -0.251,-0.0965 -0.347,0.1543 -0.482,0.2504 -1.311,1.716 -2.873,3.2777 -4.492,4.7621 -0.174,0.0964 -0.077,0.3855 -0.097,0.5785 h 0.02 c 0.038,0.3469 0.192,0.5394 0.289,0.8289 0.058,0.0965 0.251,0.2121 0.385,0.0965"
                    style="fill:#ffffff;fill-opacity:1;fill-rule:nonzero;stroke:none;stroke-width:0.1"
                    id="path152"
                    inkscape:connector-curvature="0"/>
            <path
                    d="m 153.482,78.2297 c 0.212,-0.1543 0.463,-0.2895 0.501,-0.5785 -0.424,-0.2891 -1.157,-0.4047 -1.003,-1.118 0.077,-0.1352 0.213,-0.2312 0.386,-0.2891 0.289,-0.0195 0.463,0.2313 0.713,0.3278 1.523,0.2504 2.217,-1.041 2.873,-1.8508 0.655,-1.0027 1.33,-1.9473 1.754,-3.1234 0.251,-0.4243 0.405,-0.9059 0.559,-1.4075 0.27,-0.4429 0.328,-1.0601 0.482,-1.5804 0.077,-0.5207 0.193,-1.0219 0.251,-1.5809 -0.077,-0.5594 0.212,-0.8871 0.116,-1.4848 -0.135,-0.3273 -0.579,-0.1347 -0.887,-0.1543 -1.273,0.2704 -2.487,0.6942 -3.914,0.5786 -0.366,0.2507 -0.327,0.7519 -0.578,1.0605 -0.347,0.5203 -0.733,1.0602 -1.465,1.3301 -0.425,0.0191 -0.849,-0.1156 -1.254,-0.2313 -0.019,-0.0578 -0.057,-0.1929 0.02,-0.2121 0.675,-0.5593 1.465,-1.041 1.407,-2.1207 -0.058,0 -0.058,-0.0578 -0.058,-0.0965 -0.038,-0.5589 -0.809,-0.6359 -1.176,-0.9636 -0.038,-0.2895 0.077,-0.4821 0.193,-0.6559 0.54,-0.559 1.292,-0.0383 1.851,0.1543 0.848,1.0219 2.757,0.7906 3.952,0.4051 1.774,-0.8289 3.972,-0.2121 5.263,0.9254 0.135,0.1156 0.174,-0.0774 0.193,-0.1543 v -0.2313 h -0.019 c 0.038,-0.3086 -0.174,-0.4051 -0.154,-0.675 -0.039,-0.1156 -0.116,-0.2121 -0.116,-0.3277 -0.81,-2.1012 -2.487,-3.8363 -5.167,-4.3184 -1.234,-0.1543 -2.467,0.0196 -3.489,0.5785 -0.212,0.0383 -0.193,-0.1351 -0.29,-0.2316 -0.751,-1.6387 -2.043,-2.9301 -3.836,-3.8363 -2.236,-1.041 -5.649,-0.8481 -7.365,0.7906 -0.038,0.1348 0.058,0.1734 0.097,0.2504 1.754,-0.2699 3.335,0.7133 4.01,1.9086 0.424,0.6172 0.694,1.3496 1.214,1.9086 0.772,0.7711 1.697,1.5808 2.95,1.9086 0.174,0.0965 0.25,0.2312 0.25,0.4629 -0.076,0.1925 -0.153,0.366 -0.385,0.4433 -1.87,0.0961 -3.084,-1.234 -4.01,-2.275 -0.231,-0.3277 -0.443,-0.6554 -0.636,-1.0218 v -0.0965 c -0.039,-0.1157 -0.154,-0.2118 -0.174,-0.3469 -0.077,-0.0387 -0.057,-0.1156 -0.096,-0.1926 -0.309,-0.7711 -1.08,-1.3109 -2.005,-1.5426 -1.465,-0.2699 -2.93,0.5594 -3.644,1.4848 -0.212,0.1926 -0.212,0.6168 -0.597,0.5973 -0.039,-0.7516 0.328,-1.2914 0.559,-1.9086 0.925,-2.352 3.624,-4.0676 6.709,-4.1641 1.638,-0.0383 3.123,0.3664 4.415,1.1184 1.021,0.4625 1.773,1.1371 2.429,1.889 0.482,0.3086 1.157,-0.2504 1.407,0.3664 0.251,0.2121 0.309,0.6168 0.694,0.752 0.752,-0.0195 1.561,-0.0195 2.294,0.0769 0.135,-0.0386 0.155,-0.1543 0.135,-0.3082 h -0.019 c -1.523,-3.3929 -5.456,-6.1886 -10.179,-5.9187 -4.203,0.1156 -7.827,2.4293 -10.218,4.8969 -0.212,0.2312 -0.212,0.6168 -0.328,0.9254 -0.327,0.3468 -0.443,-0.2122 -0.713,-0.2891 -0.906,-0.5977 -2.448,-0.5398 -3.355,0.1156 -0.771,0.636 -1.503,1.3688 -1.253,2.6219 0.058,-0.0191 0.039,0.0387 0.039,0.0769 0.173,0.6168 0.733,1.0219 1.446,1.2149 0.212,0.0383 0.501,0.0961 0.578,0.2891 0,0.3468 -0.308,0.5011 -0.598,0.6168 -0.481,0.2894 -1.253,-0.4243 -1.311,0.3468 -0.076,0.2121 -0.115,0.4629 -0.134,0.752 l -0.02,0.5012 h 0.02 l 0.019,0.3085 h 0.019 c 0.154,0.6168 0.309,1.2145 0.559,1.7352 0.463,0.8484 1.022,1.6387 1.639,2.3906 1.118,1.2145 2.468,2.2942 3.913,3.2965 1.254,0.9063 2.835,1.6387 4.319,2.275 -1.504,0.0387 -2.757,-0.6941 -4.048,-1.234 -3.798,-1.889 -6.883,-4.2605 -8.502,-7.6922 -0.598,-1.041 -0.791,-3.0843 -0.02,-4.1257 l 0.386,-0.559 c 0.077,-0.077 0.038,-0.2504 0.038,-0.3856 -0.366,-0.2312 -0.79,0.1157 -1.118,0.2895 -1.291,0.7902 -1.716,2.4289 -1.388,4.1062 0.636,2.3711 2.198,4.0871 4.029,5.6102 2.507,2.159 6.035,3.8941 9.543,4.916 2.892,1.0988 6.131,1.3301 9.004,2.5063 0.558,0.1347 1.002,0.6167 1.619,0.5785 l 0.675,-0.4051"
                    style="fill:#ffffff;fill-opacity:1;fill-rule:nonzero;stroke:none;stroke-width:0.1"
                    id="path154"
                    inkscape:connector-curvature="0"/>
            <path
                    d="m 136.574,77.4199 c 0.231,-0.4238 0.482,-0.8289 0.656,-1.2918 l -0.058,-0.1347 c -2.429,-0.9637 -4.511,-2.3133 -6.381,-3.7207 h -0.039 c 0,0.2121 0.193,0.3277 0.27,0.5011 1.292,2.0242 2.988,3.7403 4.955,5.3016 0.327,-0.1156 0.405,-0.4434 0.597,-0.6555"
                    style="fill:#000000;fill-opacity:1;fill-rule:nonzero;stroke:none;stroke-width:0.1"
                    id="path156"
                    inkscape:connector-curvature="0"/>
            <path
                    d="m 181.012,77.8441 c 0.038,-0.2507 -0.097,-0.4046 -0.212,-0.5589 -0.347,-0.3664 -0.752,-0.675 -1.099,-1.0606 V 76.109 c -0.039,-0.1156 -0.058,-0.2508 -0.155,-0.3277 -0.52,-0.7133 -0.539,-2.1399 -0.076,-2.9301 0.192,-0.2508 0.231,-0.6172 0.462,-0.8485 0.077,-0.8484 0.598,-1.4461 1.484,-1.6773 0.27,-0.2508 0.54,-0.5012 0.81,-0.752 0,-0.1734 -0.154,-0.2121 -0.27,-0.3086 -0.617,-0.2117 -1.06,-0.6168 -1.426,-1.041 -0.155,-0.0769 -0.347,-0.2504 -0.521,-0.1156 -0.732,0.8484 -1.253,1.8316 -1.986,2.6801 -0.231,0.3851 -0.52,0.6746 -0.732,1.0601 v 0.0965 c 0.097,0.0961 0.116,0.2699 0.231,0.366 0.193,0.3282 0.328,0.6942 0.27,1.2149 -0.328,0.5203 -0.713,0.9445 -0.655,1.7543 l -0.019,0.4047 h 0.019 c 0.192,0.7906 0.733,1.2531 1.368,1.716 0.675,0.4816 1.581,0.4816 2.43,0.5203 l 0.077,-0.077"
                    style="fill:#ffffff;fill-opacity:1;fill-rule:nonzero;stroke:none;stroke-width:0.1"
                    id="path158"
                    inkscape:connector-curvature="0"/>
            <path
                    d="m 144.459,73.5258 c 0.096,-0.0387 0,-0.193 0.096,-0.2317 -0.019,-0.1925 -0.134,-0.3082 -0.231,-0.4429 -0.482,0.1156 -1.233,0.2695 -1.6,-0.1352 -0.52,-0.4629 -0.906,-1.0219 -1.06,-1.7351 -0.058,0 -0.019,-0.077 -0.039,-0.1157 0.02,-0.289 -0.212,-0.4625 -0.096,-0.7328 0.019,-0.0578 -0.039,-0.173 0.058,-0.1926 -0.116,-0.0191 0.019,-0.2312 -0.155,-0.1543 -0.192,0.2122 -0.269,0.4821 -0.25,0.829 -0.058,0.1738 0.019,0.4437 -0.077,0.6171 0.096,0.1157 0.038,0.3278 0.058,0.4821 h 0.019 c 0.096,0.8289 0.539,1.3683 1.06,1.889 0.578,0.4434 1.812,0.5977 2.217,-0.0769"
                    style="fill:#000000;fill-opacity:1;fill-rule:nonzero;stroke:none;stroke-width:0.1"
                    id="path160"
                    inkscape:connector-curvature="0"/>
            <path
                    d="m 156.855,72.4848 c 0.155,-0.1352 0.077,-0.4243 0.097,-0.6555 -0.174,-0.2316 -0.366,-0.4434 -0.675,-0.5594 -0.289,-0.0578 -0.598,-0.0191 -0.79,0.1352 -0.174,0.2312 -0.386,0.4242 -0.367,0.7902 h 0.02 c 0.019,0.3277 0.212,0.5016 0.443,0.675 0.193,0.0965 0.463,0.1926 0.694,0.0965 0.251,-0.0965 0.443,-0.3086 0.578,-0.482"
                    style="fill:#000000;fill-opacity:1;fill-rule:nonzero;stroke:none;stroke-width:0.1"
                    id="path162"
                    inkscape:connector-curvature="0"/>
            <path
                    d="m 186.834,71.193 c 3.084,-2.7571 6.034,-5.6293 9.1,-8.4055 1.445,-1.4652 3.065,-2.834 4.511,-4.2992 0.077,-0.2121 0.385,-0.2699 0.269,-0.6363 -0.173,-0.2891 -0.346,-0.6168 -0.732,-0.7516 -0.347,0 -0.54,0.2504 -0.733,0.4238 -1.291,1.1953 -2.486,2.3906 -3.759,3.6438 -1.195,1.0605 -2.333,2.1207 -3.47,3.2004 -2.102,1.9086 -4.165,3.8554 -6.208,5.8027 -0.308,0.3086 0.193,0.4434 0.27,0.675 0.251,0.1156 0.347,0.559 0.752,0.3469"
                    style="fill:#ffffff;fill-opacity:1;fill-rule:nonzero;stroke:none;stroke-width:0.1"
                    id="path164"
                    inkscape:connector-curvature="0"/>
            <path
                    d="m 176.423,70.5184 c 0.579,-0.8098 1.176,-1.6004 1.755,-2.4102 0.212,-0.0769 0.212,-0.2695 0.27,-0.4434 0.173,-0.3855 0.559,-0.6168 0.54,-1.1375 -0.213,-0.289 -0.463,-0.5781 -0.81,-0.7902 -0.579,-0.0769 -0.637,0.5399 -0.926,0.7902 -0.79,1.2149 -1.677,2.3329 -2.525,3.4704 -0.077,0.0769 -0.019,0.2312 -0.039,0.3468 0.309,0.27 0.598,0.5785 0.983,0.8098 0.425,0 0.559,-0.3855 0.752,-0.6359"
                    style="fill:#ffffff;fill-opacity:1;fill-rule:nonzero;stroke:none;stroke-width:0.1"
                    id="path166"
                    inkscape:connector-curvature="0"/>
            <path
                    d="m 107.733,69.5352 c 0.02,-0.0387 -0.019,-0.0965 0.02,-0.1161 0.096,-0.7515 0.289,-1.407 0.501,-2.1011 0.559,-0.8871 1.195,-1.7352 1.581,-2.7571 0.038,-0.1734 0.135,-0.3082 0.154,-0.482 -0.058,0 -0.039,-0.0574 -0.039,-0.0961 -0.462,-1.1375 -0.944,-2.2363 -1.349,-3.3933 l -0.231,-0.154 c -3.355,-0.0578 -6.285,-1.1566 -9.1192,-2.4484 -0.9641,-0.4433 -1.7738,-1.0027 -2.6992,-1.4844 -0.3856,0.0383 -0.6364,0.3274 -0.9637,0.5012 -0.0965,0.0965 -0.1543,0.2313 -0.1543,0.4047 -0.1543,0.675 -0.0195,1.4652 0.0769,2.1207 0.1543,0.1156 0.193,0.3473 0.3086,0.5207 0.8676,1.0219 2.0434,1.8508 3.2,2.6988 1.6769,1.1762 3.7209,2.2559 5.8029,2.9496 0.212,0 0.27,-0.1543 0.308,-0.3086 -0.038,-0.173 0.059,-0.2312 0.059,-0.3851 0.192,-0.6942 0.501,-1.2727 0.963,-1.7547 0.078,-0.1348 0.27,-0.1348 0.405,-0.0961 0.154,0.0961 0.174,0.2695 0.174,0.4816 -0.097,0.0196 -0.02,0.1352 -0.077,0.193 -0.405,0.7711 -0.444,2.1399 -0.174,3.0074 -0.096,1.0989 0.154,2.0821 0.829,2.6993 0.077,0.0961 0.405,0.1925 0.424,0"
                    style="fill:#ffffff;fill-opacity:1;fill-rule:nonzero;stroke:none;stroke-width:0.1"
                    id="path168"
                    inkscape:connector-curvature="0"/>
            <path
                    d="m 146.599,67.9926 0.039,-0.5203 c -0.077,-0.0582 -0.077,-0.116 -0.097,-0.2121 -0.154,-0.2313 -0.366,-0.4434 -0.694,-0.5207 -0.501,-0.0961 -0.886,0.1929 -1.214,0.4242 -0.078,0.289 -0.27,0.4629 -0.193,0.8289 0.058,0.1156 0.096,0.2121 0.135,0.3277 0.173,0.2699 0.52,0.4438 0.906,0.4629 0.559,0 0.983,-0.3664 1.118,-0.7906"
                    style="fill:#000000;fill-opacity:1;fill-rule:nonzero;stroke:none;stroke-width:0.1"
                    id="path170"
                    inkscape:connector-curvature="0"/>
            <path
                    d="m 136.439,66.4309 c -0.52,-0.443 -1.234,-0.7325 -1.793,-1.1371 -0.347,-0.077 -0.366,0.2503 -0.52,0.3855 v 0.0965 c 0.54,0.4047 1.157,0.8289 1.851,1.0988 0.25,-0.0578 0.366,-0.2891 0.462,-0.4437"
                    style="fill:#000000;fill-opacity:1;fill-rule:nonzero;stroke:none;stroke-width:0.1"
                    id="path172"
                    inkscape:connector-curvature="0"/>
            <path
                    d="m 137.114,65.1586 c -0.81,-0.366 -1.523,-0.8867 -2.275,-1.2914 -0.193,0.1156 -0.366,0.2695 -0.405,0.5012 0.559,0.5781 1.408,0.9636 2.159,1.3496 0.309,-0.0578 0.463,-0.2895 0.521,-0.5594"
                    style="fill:#000000;fill-opacity:1;fill-rule:nonzero;stroke:none;stroke-width:0.1"
                    id="path174"
                    inkscape:connector-curvature="0"/>
            <path
                    d="m 112.514,63.5391 v -0.2118 h -0.019 c -0.694,-1.3687 -1.253,-2.8148 -1.793,-4.2992 -0.347,-0.1929 -0.636,0.1543 -0.867,0.2891 -0.155,0.0965 -0.078,0.3469 -0.097,0.5207 0.039,0.0965 0.116,0.1926 0.116,0.2891 0.521,1.3496 1.022,2.6605 1.639,3.9136 0.366,0.2504 0.694,-0.2121 0.983,-0.3472 l 0.038,-0.1543"
                    style="fill:#ffffff;fill-opacity:1;fill-rule:nonzero;stroke:none;stroke-width:0.1"
                    id="path176"
                    inkscape:connector-curvature="0"/>
            <path
                    d="m 100.716,62.5559 c 0.058,-0.1157 0.038,-0.2504 0.038,-0.3856 -0.578,-0.4625 -1.2911,-0.848 -1.8888,-1.2914 -0.9062,-0.675 -1.7929,-1.4074 -2.7379,-2.0437 1.1375,1.4652 2.6993,2.6605 4.2417,3.8558 0.135,0.1735 0.289,-0.0387 0.347,-0.1351"
                    style="fill:#000000;fill-opacity:1;fill-rule:nonzero;stroke:none;stroke-width:0.1"
                    id="path178"
                    inkscape:connector-curvature="0"/>
            <path
                    d="m 101.391,60.6668 c 0.212,-0.559 -0.405,-0.559 -0.675,-0.7711 -1.3883,-0.6168 -2.5258,-1.3883 -3.8176,-2.0629 v 0.1543 c 1.1954,1.1375 2.5836,2.1207 4.1836,2.9688 0.212,0.0578 0.251,-0.1735 0.309,-0.2891"
                    style="fill:#000000;fill-opacity:1;fill-rule:nonzero;stroke:none;stroke-width:0.1"
                    id="path180"
                    inkscape:connector-curvature="0"/>
            <path
                    d="m 139.37,40.9445 h -0.02 c -0.057,-0.3277 0.097,-0.4816 0.174,-0.7132 0.771,-0.7516 1.504,-1.5231 2.448,-2.159 0.193,-0.0965 0.405,-0.2891 0.694,-0.27 1.273,0.559 2.526,1.2145 3.721,1.87 h 0.251 c 1.041,-0.7907 1.908,-1.716 3.084,-2.4289 0.135,-0.0965 0.347,-0.0965 0.463,0 0.887,1.2722 1.697,2.6023 2.429,3.9711 0.656,1.2726 1.427,2.4871 1.966,3.8367 0.097,0.0578 0.116,0.1926 0.155,0.289 0.135,0.3856 0.347,0.6746 0.482,1.0797 h 0.019 c 0.058,0.1348 0.058,0.3278 0.174,0.4242 0.308,0.8481 0.655,1.6579 0.925,2.5446 0.482,1.2531 0.81,2.6414 1.137,4.0101 h 0.02 c -0.02,0.2121 0.077,0.6555 -0.251,0.5012 -1.562,-1.1184 -3.412,-2.2172 -5.514,-2.5449 -4.048,-0.7324 -8.02,0.3086 -11.085,2.3715 h -0.174 c -0.231,-0.0965 -0.175,-0.4051 -0.134,-0.752 0.26,-3.4605 0.404,-5.8223 -0.964,-12.0301"
                    style="fill:#ffffff;fill-opacity:1;fill-rule:nonzero;stroke:none;stroke-width:0.1"
                    id="path182"
                    inkscape:connector-curvature="0"/>
            <path
                    d="m 148.114,44.6016 c 0.427,-0.1457 0.946,0.2418 1.158,0.8656 0.213,0.6234 0.038,1.2469 -0.39,1.3926 -0.427,0.1457 -0.946,-0.2418 -1.158,-0.8657 -0.213,-0.6234 -0.038,-1.2472 0.39,-1.3925"
                    style="fill:#000000;fill-opacity:1;fill-rule:nonzero;stroke:none;stroke-width:0.1"
                    id="path184"
                    inkscape:connector-curvature="0"/>
            <path
                    d="m 146.716,41.4203 c 0.428,-0.1453 0.947,0.2422 1.159,0.8656 0.212,0.6235 0.038,1.2473 -0.39,1.393 -0.428,0.1453 -0.947,-0.2422 -1.159,-0.8656 -0.212,-0.6238 -0.038,-1.2473 0.39,-1.393"
                    style="fill:#000000;fill-opacity:1;fill-rule:nonzero;stroke:none;stroke-width:0.1"
                    id="path186"
                    inkscape:connector-curvature="0"/>
            <path
                    d="m 144.835,51.0563 -0.723,-4.434 5.495,2.4578 3.807,-2.5543 1.928,5.2535 -1.301,-0.5785 -1.061,-2.8914 -3.229,2.0242 -4.048,-1.7836 0.193,2.1207 -1.061,0.3856"
                    style="fill:#000000;fill-opacity:1;fill-rule:nonzero;stroke:none;stroke-width:0.1"
                    id="path188"
                    inkscape:connector-curvature="0"/></g></g></svg>