<?xml version="1.0" encoding="iso-8859-1"?>
<!-- Generator: Adobe Illustrator 19.0.0, SVG Export Plug-In . SVG Version: 6.00 Build 0)  -->
<svg version="1.1" id="Layer_1" xmlns="http://www.w3.org/2000/svg" xmlns:xlink="http://www.w3.org/1999/xlink" x="0px" y="0px"
	 viewBox="0 0 512.13 512.13" style="enable-background:new 0 0 512.13 512.13;" xml:space="preserve">
<g>
	<g>
		<path d="M256.065,0C114.43,0,0,114.298,0,256.065S114.298,512.13,256.065,512.13S512.13,397.832,512.13,256.065
			S397.702,0,256.065,0z M256.065,477.892c-122.891,0-221.828-98.937-221.828-221.828S133.175,34.236,256.065,34.236
			s221.828,98.937,221.828,221.828S378.956,477.892,256.065,477.892z"/>
	</g>
</g>
<g>
	<g>
		<path d="M216.88,143.459c-10.284,0-17.054,6.769-17.054,17.053v191.105c0,10.285,6.769,17.053,17.054,17.053
			c8.592,0,17.054-6.769,17.054-17.053V160.513C233.935,150.229,227.035,143.459,216.88,143.459z"/>
	</g>
</g>
<g>
	<g>
		<path d="M295.38,143.459c-10.284,0-17.054,6.769-17.054,17.053v191.105c0,10.285,6.769,17.053,17.054,17.053
			s17.054-6.769,17.054-17.053V160.513C312.433,150.229,305.534,143.459,295.38,143.459z"/>
	</g>
</g>
<g>
</g>
<g>
</g>
<g>
</g>
<g>
</g>
<g>
</g>
<g>
</g>
<g>
</g>
<g>
</g>
<g>
</g>
<g>
</g>
<g>
</g>
<g>
</g>
<g>
</g>
<g>
</g>
<g>
</g>
</svg>
